<?xml version="1.0" encoding="UTF-8" standalone="no"?>
<!-- Created with Inkscape (http://www.inkscape.org/) -->

<svg
   xmlns:dc="http://purl.org/dc/elements/1.1/"
   xmlns:cc="http://creativecommons.org/ns#"
   xmlns:rdf="http://www.w3.org/1999/02/22-rdf-syntax-ns#"
   xmlns:svg="http://www.w3.org/2000/svg"
   xmlns="http://www.w3.org/2000/svg"
   xmlns:sodipodi="http://sodipodi.sourceforge.net/DTD/sodipodi-0.dtd"
   xmlns:inkscape="http://www.inkscape.org/namespaces/inkscape"
   width="282.22223mm"
   height="282.22223mm"
   viewBox="0 0 282.22223 282.22223"
   version="1.1"
   id="svg8"
   inkscape:version="0.92.4 (5da689c313, 2019-01-14)"
   sodipodi:docname="atatNEW.svg">
  <defs
     id="defs2" />
  <sodipodi:namedview
     id="base"
     pagecolor="#ffffff"
     bordercolor="#666666"
     borderopacity="1.0"
     inkscape:pageopacity="0"
     inkscape:pageshadow="2"
     inkscape:zoom="0.35"
     inkscape:cx="-372.38095"
     inkscape:cy="967.61907"
     inkscape:document-units="mm"
     inkscape:current-layer="layer1"
     showgrid="false"
     fit-margin-top="0"
     fit-margin-left="0"
     fit-margin-right="0"
     fit-margin-bottom="0"
     inkscape:pagecheckerboard="true"
     inkscape:window-width="1842"
     inkscape:window-height="1051"
     inkscape:window-x="-9"
     inkscape:window-y="-9"
     inkscape:window-maximized="1" />
  <metadata
     id="metadata5">
    <rdf:RDF>
      <cc:Work
         rdf:about="">
        <dc:format>image/svg+xml</dc:format>
        <dc:type
           rdf:resource="http://purl.org/dc/dcmitype/StillImage" />
        <dc:title></dc:title>
      </cc:Work>
    </rdf:RDF>
  </metadata>
  <g
     inkscape:label="Layer 1"
     inkscape:groupmode="layer"
     id="layer1"
     transform="translate(-91.722221,-122.62698)">
    <path
       style="fill:#000000;stroke-width:0.40625781"
       d="m 178.84061,362.74782 c 0.66983,-0.54988 1.33506,-1.00633 1.47827,-1.01438 0.47455,-0.0266 1.46567,-3.02949 1.74926,-5.29984 0.50694,-4.05848 1.97355,-7.31799 3.2927,-7.31799 0.31819,0 1.29625,-0.31141 2.17349,-0.69202 1.12235,-0.48694 1.65386,-0.99896 1.79361,-1.72785 0.30994,-1.61629 -0.37089,-2.05224 -3.20488,-2.05224 h -2.56415 l -0.27945,-1.86619 c -0.65501,-4.37426 0.88579,-9.01711 4.26588,-12.8542 l 1.68594,-1.91388 -0.67122,-1.29985 c -0.99102,-1.91925 -0.51318,-3.69865 1.87263,-6.97335 2.44617,-3.35756 3.01033,-4.78098 4.06598,-10.25878 1.03161,-5.35306 1.01175,-6.45912 -0.13007,-7.24061 -3.85484,-2.63832 -5.33936,-5.11359 -5.28918,-8.81914 0.039,-2.87568 0.29541,-3.66272 4.76912,-14.63599 1.50417,-3.68949 5.56745,-15.21534 9.0295,-25.61299 3.46207,-10.39765 6.91424,-20.23521 7.6715,-21.86127 0.75726,-1.62605 1.37684,-3.03269 1.37684,-3.12588 0,-0.23769 -2.81372,-0.55588 -7.10431,-0.80342 -2.0095,-0.11592 -3.67596,-0.21487 -3.70326,-0.21986 -0.0273,-0.004 -0.16151,-0.71004 -0.29831,-1.56675 -0.48061,-3.01002 -0.73398,-3.08022 -11.25699,-3.11853 -5.1279,-0.0187 -9.46899,0.0654 -9.64684,0.18669 -0.65227,0.44506 -0.79994,1.5849 -0.423,3.26501 0.44451,1.98127 0.19524,2.43251 -2.16963,3.92758 -2.49694,1.57857 -5.63689,2.17534 -11.45797,2.17769 -4.3567,8.5e-4 -5.48161,0.12769 -6.35548,0.71147 -0.58399,0.39013 -1.84704,1.23367 -2.80679,1.87455 l -1.74501,1.1652 -2.16697,-0.89947 c -1.71336,-0.7112 -2.61297,-0.84619 -4.29751,-0.64491 -1.17179,0.14004 -4.87077,0.35517 -8.21994,0.47808 l -6.08941,0.22348 -0.7363,-1.25696 c -1.18408,-2.02133 -3.60074,-3.02182 -6.61766,-2.73969 -1.38504,0.12953 -5.36643,0.1241 -8.84754,-0.0119 -5.68188,-0.22223 -6.32929,-0.32088 -6.32929,-0.9644 0,-1.83323 0.33859,-2.0029 4.00153,-2.00527 4.16694,-0.002 6.30381,-0.51977 7.15041,-1.73022 1.08189,-1.54689 0.78703,-2.54112 -0.99187,-3.34446 -1.62608,-0.73435 -1.82865,-1.42794 -0.41703,-1.42794 1.18082,0 1.25497,-0.53184 0.33407,-2.3959 -1.03056,-2.08598 -0.71375,-3.06882 1.54152,-4.78231 0.83696,-0.6359 2.99788,-2.54564 4.80206,-4.24389 2.06172,-1.94067 3.88131,-3.28298 4.89818,-3.61339 0.88983,-0.28914 3.77311,-1.64393 6.40726,-3.01064 4.77244,-2.47613 4.80119,-2.48476 8.11921,-2.43943 1.83141,0.025 4.33697,0.18129 5.56792,0.34726 2.32135,0.31301 1.69371,0.43816 18.42488,-3.67393 4.82755,-1.18648 4.70956,-1.18122 4.70956,-0.20972 0,0.44109 0.74707,1.33856 1.72532,2.07269 l 1.72534,1.29474 6.49535,-0.25027 c 3.57247,-0.13765 8.0025,-0.3637 9.84455,-0.50237 l 3.34918,-0.2521 v -8.64203 -8.64205 l 1.13757,-1.21957 c 0.77959,-0.83575 2.15301,-1.54341 4.36408,-2.24862 1.77457,-0.56598 6.14941,-2.04199 9.72187,-3.28003 3.57244,-1.23804 8.731,-2.89345 11.46344,-3.67866 6.1347,-1.7629 7.48554,-2.45107 10.05246,-5.12111 1.11639,-1.16124 2.61764,-2.36519 3.33611,-2.67545 1.0665,-0.46053 5.82948,-0.56409 25.94079,-0.56409 h 24.63447 l 11.20459,4.53012 c 6.16251,2.49157 12.02665,4.84199 13.03139,5.22315 2.27506,0.86306 8.8542,3.55897 9.94604,4.07554 0.44655,0.21128 2.63874,1.10166 4.87152,1.97863 7.42236,2.9153 9.25124,3.69056 10.24567,4.34309 1.33298,0.87468 2.13578,2.9593 2.13775,5.55103 0.003,2.99364 1.07806,9.39974 2.06747,12.31136 0.45591,1.34164 1.67053,3.99441 2.69917,5.89506 1.02864,1.90065 2.29734,4.28286 2.81933,5.29383 l 0.94907,1.83813 -1.39382,5.47988 c -0.7666,3.01393 -1.76081,6.852 -2.20936,8.52904 -0.44856,1.67704 -1.30723,4.97014 -1.90816,7.318 -0.6009,2.34786 -1.42407,4.92399 -1.82924,5.72474 -1.42951,2.82522 -4.91862,4.68354 -9.63284,5.13049 -1.40268,0.13298 -2.63617,0.38088 -2.74109,0.5509 -0.10495,0.17 0.004,2.10969 0.24161,4.31045 0.51334,4.75082 1.33202,12.66582 2.18006,21.07669 0.33816,3.35407 0.90178,8.7511 1.25245,11.99338 0.35068,3.24227 0.90194,8.54783 1.22502,11.79011 1.68733,16.93327 1.9483,18.09399 4.75674,21.15601 2.8291,3.08454 3.52833,5.19249 2.52227,7.60383 l -0.61334,1.47008 1.9887,2.89359 c 2.50528,3.64527 3.46544,5.55431 4.13792,8.22721 0.9061,3.6015 -0.47823,5.22797 -4.87552,5.72826 l -2.5025,0.28472 1.45411,1.69902 c 0.79976,0.93447 2.06596,2.07774 2.81378,2.5406 0.74781,0.46285 1.84291,1.57284 2.43353,2.46666 1.31548,1.99073 2.36667,5.84583 2.05202,7.52547 -0.2227,1.18887 -0.12426,1.29579 2.2314,2.42332 1.35539,0.64879 2.46437,1.32891 2.46437,1.5114 0,0.1825 -20.84814,0.33181 -46.3292,0.33181 -40.72638,0 -46.26925,-0.0722 -45.83365,-0.59795 0.27254,-0.32888 1.09641,-0.81556 1.8308,-1.08151 1.30796,-0.47365 1.34426,-0.5532 1.77398,-3.88693 0.6526,-5.06301 1.5762,-6.70941 4.9881,-8.89187 0.8133,-0.52024 1.8896,-1.52377 2.39179,-2.23008 1.04793,-1.47381 0.6761,-1.99453 -1.43475,-2.00924 -2.19332,-0.0153 -4.10059,-0.77066 -4.67905,-1.8531 -0.45389,-0.84937 -0.46276,-1.37961 -0.0492,-2.94736 0.59542,-2.25769 2.42475,-5.90953 4.52156,-9.0264 1.87184,-2.78244 1.99006,-3.14529 1.54981,-4.75734 -0.44024,-1.61206 0.28869,-3.51394 2.45475,-6.40464 3.15794,-4.21443 3.59585,-6.10148 4.10826,-17.70345 0.41468,-9.3893 0.50136,-9.68058 6.71396,-22.56384 1.9409,-4.02488 4.17308,-8.69011 4.9604,-10.36715 0.78731,-1.67704 2.61647,-5.519 4.0648,-8.53765 2.72704,-5.6838 4.56903,-9.68129 4.56903,-9.91573 0,-0.0743 -1.50714,-0.54392 -3.34918,-1.04347 -5.41206,-1.46773 -12.42892,-3.87666 -16.13692,-5.53992 -3.28718,-1.47448 -3.64301,-1.54596 -7.51028,-1.50852 -3.58894,0.0346 -4.90677,0.27966 -11.36689,2.11269 -6.9314,1.96676 -17.06964,4.49588 -23.74868,5.92443 -3.72478,0.79668 -4.6561,1.46974 -5.64354,4.07865 -0.6643,1.75514 -0.97255,2.08751 -2.27953,2.45799 -1.76183,0.49939 -2.63189,1.51514 -2.63189,3.07257 0,0.61023 -0.74607,3.27378 -1.65793,5.91899 -0.91186,2.64521 -1.83388,5.44979 -2.04896,6.23241 -0.21504,0.78262 -0.55001,1.78886 -0.74435,2.23606 -0.19432,0.44721 -0.84839,2.2767 -1.45345,4.06555 -0.60507,1.78885 -2.00338,5.53932 -3.10734,8.33438 -1.70574,4.31862 -2.00622,5.48993 -2.00055,7.79824 0.014,5.69522 3.60258,9.64133 11.21556,12.33288 1.43507,0.50738 2.684,1.40662 4.26258,3.06915 1.75197,1.84513 3.29571,2.89703 7.1688,4.88479 5.53419,2.8403 5.3663,2.48584 2.9104,6.14492 -0.85472,1.27347 -1.55403,2.48591 -1.55403,2.69432 0,0.50669 3.50771,0.1111 5.22557,-0.58927 1.92133,-0.78337 3.68659,-0.69501 5.33572,0.26705 0.778,0.45388 3.28703,1.73098 5.57563,2.83803 2.2886,1.10706 4.1611,2.25889 4.1611,2.55966 0,0.30075 -0.47196,0.99035 -1.04879,1.53245 -1.91186,1.79669 -6.11421,7.84648 -7.85559,11.30906 -2.43217,4.83611 -2.36549,4.75909 -5.14418,5.94179 -3.68178,1.56707 -5.74378,3.8069 -8.91247,9.68109 l -1.27633,2.36613 -2.46627,-3.78908 c -1.35645,-2.08398 -3.16467,-4.78044 -4.01825,-5.99214 l -1.55198,-2.20309 v -4.29252 c 0,-5.24627 -0.40553,-5.55311 -3.05284,-2.30985 -1.00027,1.22547 -2.03127,2.23701 -2.29109,2.24787 -0.25983,0.0104 -1.66622,-1.41366 -3.1253,-3.16558 -4.14703,-4.97927 -4.00748,-4.97243 -3.67789,-0.18012 0.32874,4.78022 0.30919,4.80654 -3.68533,4.96388 -1.33967,0.0528 -2.50875,0.16895 -2.59797,0.25818 -0.0892,0.0892 0.004,0.75995 0.20973,1.4905 0.31153,1.11257 0.81393,1.54031 3.0938,2.63412 2.97695,1.42821 2.83464,1.18006 3.56071,6.20963 0.54564,3.77973 1.30583,5.12538 3.86869,6.84809 1.10774,0.7446 2.07494,1.52211 2.14937,1.72786 0.0813,0.22485 -8.82513,0.37325 -22.32782,0.37203 l -22.46314,-0.002 1.21788,-0.99974 z m 134.43128,-4.03164 c 0.0852,-2.89645 0.48709,-5.0414 1.21655,-6.49244 0.83681,-1.66462 2.94666,-3.90464 4.10383,-4.35706 0.92604,-0.36203 2.53315,-2.59793 2.53593,-3.52811 8.1e-4,-0.33434 -0.64821,-0.50818 -1.89798,-0.50818 -2.67304,0 -4.48965,-0.74047 -4.79376,-1.95397 -0.35947,-1.43429 0.0411,-3.0197 1.89242,-7.49386 1.81847,-4.39427 1.86693,-4.74639 1.13719,-8.26454 -0.47041,-2.26785 -0.43721,-2.69045 0.412,-5.2461 0.81402,-2.44971 0.8972,-3.31488 0.70092,-7.29078 -0.12251,-2.48118 -0.77866,-7.89582 -1.4581,-12.03252 -1.6837,-10.25077 -1.97738,-11.88661 -3.39384,-18.90483 -0.67694,-3.35407 -1.31852,-6.60144 -1.42571,-7.21635 -0.19093,-1.09518 -1.314,-1.61113 -1.32747,-0.60984 -0.004,0.2795 -1.00237,2.06328 -2.21915,3.96391 -3.47823,5.43307 -7.51706,12.08427 -7.51706,12.3792 0,0.14774 -0.34799,1.03614 -0.77333,1.97418 -1.20102,2.64883 -1.98348,5.82778 -2.47121,10.03995 -0.24597,2.12424 -0.73119,5.2344 -1.07827,6.91144 -0.88252,4.26421 -0.55641,9.19615 0.81987,12.39995 1.17903,2.74454 1.38181,5.72961 0.47114,6.93537 -0.83354,1.10366 -0.77037,1.77458 0.42106,4.47256 1.45789,3.3014 1.66165,5.7228 0.62091,7.37885 -0.86233,1.37218 -3.4913,2.96393 -4.89533,2.96393 -1.42292,0 -0.92901,0.86475 2.20926,3.86807 3.63484,3.47852 4.72513,5.62997 4.99881,9.86401 l 0.1912,2.95837 5.73087,-0.11248 5.73085,-0.11249 z M 209.73529,337.2293 c -0.37418,-1.87359 -0.95243,-2.28459 -3.75408,-2.66832 -3.02891,-0.41483 -4.20384,-0.0562 -4.20384,1.28292 0,0.88579 0.31388,1.06567 3.14618,1.8031 1.73042,0.45051 3.58007,0.83692 4.11036,0.85865 0.87521,0.0358 0.93991,-0.082 0.70138,-1.27635 z m -10.32379,-0.2408 c 0.1501,-0.15005 0.39617,-0.94503 0.54687,-1.7666 l 0.27397,-1.49374 -1.96773,-0.304 c -4.99797,-0.77213 -7.25269,-0.16052 -8.24403,2.23632 -0.91499,2.21222 -0.6216,2.33928 4.50421,1.95067 2.53761,-0.19239 4.73664,-0.47258 4.88671,-0.62265 z m 76.45364,0.55201 c 0.90269,-0.3257 3.13126,-0.5938 5.01818,-0.60373 l 3.39437,-0.0179 -0.28502,-1.52148 c -0.37677,-2.01131 -0.33286,-1.96403 -2.51687,-2.70929 -2.38197,-0.8128 -4.16345,-0.82441 -5.28962,-0.0345 -0.7755,0.54399 -3.36574,4.56855 -3.36574,5.2295 0,0.42597 1.32869,0.27643 3.0447,-0.34268 z m 17.25331,-1.15008 c 0,-1.96843 -0.59298,-2.31738 -3.93782,-2.31738 -2.65075,0 -2.9635,0.0823 -2.9635,0.77986 0,1.77718 0.40002,2.06604 2.86119,2.06604 1.3026,0 2.48128,0.18294 2.61928,0.40653 0.57864,0.93766 1.42085,0.38339 1.42085,-0.93505 z m 32.88279,0.40135 3.0447,-0.48267 v -1.42295 c 0,-1.41679 -0.009,-1.42349 -2.00289,-1.5499 -1.10159,-0.0698 -2.43068,-0.0194 -2.95355,0.11202 -1.36128,0.34216 -2.55383,1.67809 -2.55383,2.86087 0,1.17046 0.0756,1.17863 4.46557,0.48269 z m 14.61457,-0.0963 c 0,-1.02213 -1.12062,-2.89335 -2.27942,-3.80619 -1.11268,-0.87652 -2.74504,-1.04994 -5.53531,-0.58807 -1.44808,0.23972 -1.52235,0.32741 -1.52235,1.79764 0,1.12908 0.19145,1.59649 0.71042,1.73438 1.20072,0.31899 6.55001,1.26568 8.11922,1.43689 0.27909,0.0305 0.50744,-0.22814 0.50744,-0.57465 z m -117.50888,-3.53714 c 0.40077,-1.86374 1.28538,-3.4714 3.09033,-5.61629 2.78206,-3.30601 1.90908,-3.65959 -2.80398,-1.1357 -1.72959,0.92621 -3.28814,1.8108 -3.46345,1.96575 -0.17531,0.15494 0.0707,1.1809 0.54648,2.27988 0.47585,1.09898 1.0258,2.40981 1.2221,2.91292 0.50637,1.29792 1.07743,1.1331 1.40852,-0.40656 z m 8.48586,-11.91715 c 1.67796,-1.02021 3.15186,-2.01866 3.27535,-2.21875 0.21449,-0.34757 -1.79849,-1.61812 -2.5637,-1.61812 -0.46521,0 -4.13965,4.66079 -4.13965,5.25089 0,0.6495 0.10588,0.60582 3.428,-1.41402 z"
       id="path21"
       inkscape:connector-curvature="0" />
  </g>
</svg>
