<?xml version="1.0" encoding="UTF-8" standalone="no"?>
<!-- Created with Inkscape (http://www.inkscape.org/) -->

<svg
   xmlns:dc="http://purl.org/dc/elements/1.1/"
   xmlns:cc="http://creativecommons.org/ns#"
   xmlns:rdf="http://www.w3.org/1999/02/22-rdf-syntax-ns#"
   xmlns:svg="http://www.w3.org/2000/svg"
   xmlns="http://www.w3.org/2000/svg"
   xmlns:sodipodi="http://sodipodi.sourceforge.net/DTD/sodipodi-0.dtd"
   xmlns:inkscape="http://www.inkscape.org/namespaces/inkscape"
   width="900"
   height="900"
   viewBox="0 0 238.125 238.125"
   version="1.1"
   id="svg8"
   inkscape:version="0.92.4 (5da689c313, 2019-01-14)"
   sodipodi:docname="planetsVectorNEW.svg">
  <defs
     id="defs2" />
  <sodipodi:namedview
     id="base"
     pagecolor="#ffffff"
     bordercolor="#666666"
     borderopacity="1.0"
     inkscape:pageopacity="0.0"
     inkscape:pageshadow="2"
     inkscape:zoom="0.35"
     inkscape:cx="-539.28573"
     inkscape:cy="755"
     inkscape:document-units="mm"
     inkscape:current-layer="layer1"
     showgrid="false"
     fit-margin-top="0"
     fit-margin-left="0"
     fit-margin-right="0"
     fit-margin-bottom="0"
     inkscape:pagecheckerboard="true"
     units="px"
     inkscape:window-width="1842"
     inkscape:window-height="1051"
     inkscape:window-x="-9"
     inkscape:window-y="-9"
     inkscape:window-maximized="1" />
  <metadata
     id="metadata5">
    <rdf:RDF>
      <cc:Work
         rdf:about="">
        <dc:format>image/svg+xml</dc:format>
        <dc:type
           rdf:resource="http://purl.org/dc/dcmitype/StillImage" />
        <dc:title></dc:title>
      </cc:Work>
    </rdf:RDF>
  </metadata>
  <g
     inkscape:label="Layer 1"
     inkscape:groupmode="layer"
     id="layer1"
     transform="translate(-144.95387,-110.46875)">
    <path
       style="fill:#000000;stroke-width:0.39860779"
       d="m 206.40491,330.11243 c -0.4194,-0.66276 -0.93572,-0.79199 -3.16422,-0.79199 -1.66392,0 -2.82181,-0.18876 -3.08616,-0.50312 -0.2327,-0.27671 -0.73817,-1.62154 -1.12327,-2.98853 -0.56551,-2.00739 -0.61904,-2.84356 -0.27837,-4.34774 0.23198,-1.02429 0.45585,-4.96883 0.49746,-8.76566 0.0415,-3.79682 0.25125,-7.22707 0.46584,-7.62278 0.29663,-0.547 0.86773,-0.71948 2.38226,-0.71948 1.62684,0 1.9935,-0.12706 1.99974,-0.69298 0.004,-0.38113 0.54619,-1.53941 1.20445,-2.57392 1.01026,-1.58771 1.40005,-1.88756 2.50016,-1.92336 1.24818,-0.0406 1.23253,-0.0581 -0.36973,-0.41301 l -1.67303,-0.37058 -0.1636,-2.65591 c -0.0899,-1.46076 -0.41343,-3.23116 -0.71879,-3.93424 -0.46498,-1.07064 -0.46999,-1.64969 -0.0309,-3.56391 0.28838,-1.25706 0.61908,-3.21403 0.73491,-4.34879 0.18693,-1.83179 0.07,-2.27248 -1.04154,-3.92878 -1.21761,-1.81418 -1.2521,-1.98949 -1.2521,-6.36548 0,-3.4417 -0.14968,-4.72535 -0.63645,-5.45855 -0.72741,-1.09561 -0.47236,-1.78542 0.66014,-1.78542 0.74298,0 0.77881,-0.33863 0.77881,-7.36369 0,-6.2898 0.10194,-7.53404 0.69908,-8.53167 0.64782,-1.08229 0.65162,-1.24961 0.0519,-2.28084 -0.43599,-0.74973 -0.52765,-1.32363 -0.28089,-1.75879 0.21914,-0.38646 0.22042,-0.92642 0.003,-1.34417 -0.19972,-0.38403 -0.47623,-2.34652 -0.61446,-4.36112 -0.22707,-3.30942 -0.18398,-3.6635 0.44647,-3.66897 0.54465,-0.004 0.5783,-0.0808 0.15331,-0.34655 -0.33875,-0.21184 -0.44349,-0.65455 -0.27719,-1.17167 0.20226,-0.62886 -0.0895,-1.18333 -1.19869,-2.27799 -1.30721,-1.29008 -1.43855,-1.60218 -1.21241,-2.88116 0.13952,-0.78888 0.32055,-2.055 0.40235,-2.81361 0.0957,-0.8881 0.47555,-1.59317 1.06655,-1.97994 2.74226,-1.79468 2.72355,-1.71299 0.85162,-3.71719 -0.9327,-0.9986 -1.70121,-2.13148 -1.70781,-2.51748 -0.006,-0.386 -0.11601,-3.1653 -0.24308,-6.1762 -0.2232,-5.28731 -0.20532,-5.4585 0.52325,-5.00945 0.61385,0.37833 1.03274,0.30281 2.24929,-0.40558 1.46719,-0.85432 1.88853,-1.69345 1.09372,-2.17823 -0.54628,-0.33319 -0.50731,-1.91486 0.061,-2.47572 0.28783,-0.28406 0.43807,-1.73327 0.39818,-3.84109 -0.047,-2.48562 0.07,-3.38654 0.44058,-3.39098 0.84961,-0.0105 1.74932,-0.7556 1.3071,-1.08291 -0.54516,-0.40352 -1.87292,-4.12445 -1.57623,-4.41723 0.13057,-0.12887 0.4698,0.0791 0.75374,0.46235 0.42249,0.57024 0.59659,0.60118 0.95887,0.17039 0.32928,-0.39157 0.27675,-0.76009 -0.20514,-1.43909 -0.59782,-0.84232 -0.59553,-1.00003 0.0295,-2.04444 0.48016,-0.8022 0.56591,-1.33732 0.29448,-1.83784 -0.26088,-0.48106 -0.22059,-0.92519 0.12632,-1.39348 0.82164,-1.10892 0.98424,-0.82198 0.90083,1.58959 -0.0737,2.12852 -0.0199,2.27488 0.82403,2.24548 1.11835,-0.0389 1.19369,0.87694 0.10019,1.21942 -0.9704,0.30397 -1.05646,1.31464 -0.1415,1.66116 0.59577,0.22562 1.1355,0.0907 3.45172,-0.86283 1.09452,-0.4506 0.86859,0.63808 -0.52699,2.53938 -1.15201,1.56948 -1.1906,1.73262 -0.61497,2.59965 0.73261,1.10346 1.75946,0.95998 3.08337,-0.43081 0.49879,-0.52398 1.05597,-0.95268 1.23818,-0.95268 0.61333,0 0.33786,1.14496 -0.37089,1.5414 -0.65775,0.36796 -0.6514,0.43047 0.1002,0.98814 0.77939,0.57822 0.76496,0.60847 -0.50156,1.05159 -1.54851,0.54177 -1.66119,1.05633 -0.33991,1.5521 0.53028,0.19897 1.08261,0.55095 1.22743,0.78218 0.45176,0.72141 1.01816,0.46097 1.02336,-0.47056 0.006,-1.07457 2.6621,-2.97109 3.29136,-2.35008 0.52375,0.51689 -1.15472,2.1891 -1.91015,1.903 -0.3069,-0.11629 -0.66705,-0.0371 -0.80034,0.17567 -0.1333,0.21286 0.43896,0.66795 1.27168,1.01132 1.11465,0.45962 1.36041,0.70548 0.93168,0.932 -0.69222,0.36574 -3.19998,0.30371 -3.84715,-0.0952 -0.52356,-0.32267 -1.52813,0.68858 -1.20174,1.20974 0.11919,0.19047 1.22685,0.56936 2.46131,0.842 1.68393,0.37191 2.3821,0.383 2.79547,0.0445 0.44354,-0.3633 0.50889,-0.29247 0.33511,0.36332 -0.23094,0.87161 0.25224,1.07861 0.938,0.40184 0.57132,-0.56383 1.51877,0.58838 1.1865,1.44292 -0.17011,0.43748 -0.57085,0.58381 -1.24864,0.45594 -1.13779,-0.21465 -1.39491,0.63133 -0.36479,1.20027 0.53933,0.29787 0.47978,0.44907 -0.40124,1.01879 -1.39153,0.89981 -1.30338,1.37227 0.38597,2.06888 1.46154,0.60268 1.54649,1.35378 0.15312,1.35378 -0.61097,0 -0.73909,0.19879 -0.5742,0.89096 0.30839,1.29448 -0.32658,2.02452 -1.55864,1.79208 -0.82398,-0.15544 -1.04585,-0.041 -1.04585,0.53977 0,0.40538 -0.16839,0.73707 -0.3742,0.73707 -0.20582,0 -0.49121,0.36383 -0.63421,0.80852 -0.18596,0.57821 -0.47941,0.73981 -1.03016,0.56731 -1.6454,-0.51539 -0.66108,0.50269 1.30528,1.35005 l 2.07539,0.89434 2.27917,-0.82014 c 1.25355,-0.45107 2.6047,-0.82013 3.00259,-0.82013 0.39789,0 1.31523,-0.4455 2.03855,-0.98998 0.72333,-0.54448 1.41748,-0.98997 1.54256,-0.98997 0.5112,0 0.18193,1.12046 -0.39332,1.33829 -0.34136,0.12931 -0.56706,0.54567 -0.50155,0.92528 0.0936,0.54183 -0.25982,0.74184 -1.64382,0.93045 -1.8192,0.24792 -2.85135,1.12593 -2.85135,2.42551 0,0.41277 -0.29754,0.72234 -0.70218,0.73053 -0.38619,0.007 -1.21314,0.42682 -1.83766,0.9311 l -1.1355,0.91686 0.94445,1.08358 c 0.83275,0.95545 1.12465,1.05023 2.46822,0.80149 0.83807,-0.15517 2.05253,-0.72124 2.69882,-1.25793 1.37373,-1.14075 1.54552,-0.68501 0.32093,0.85141 -0.63433,0.79586 -0.73758,1.18663 -0.40124,1.51856 0.67185,0.66305 0.54902,1.15718 -0.2493,1.0029 -0.42321,-0.0819 -0.90145,0.23931 -1.20373,0.80822 -0.63735,1.19942 -0.64762,1.14434 0.30792,1.64904 0.61911,0.327 1.01755,0.28371 1.69426,-0.18406 1.12108,-0.77497 1.90994,-0.78224 1.90994,-0.0177 0,0.36577 -0.37632,0.59399 -0.97942,0.59399 -0.53868,0 -1.07814,0.15763 -1.19879,0.35028 -0.12072,0.19267 -1.04184,0.29558 -2.04708,0.22869 -1.62557,-0.10821 -1.80153,-0.0403 -1.59102,0.61434 0.21381,0.66486 0.0437,0.71866 -1.7607,0.55683 -1.09855,-0.0985 -2.10481,-0.007 -2.23612,0.2021 -0.13133,0.20966 0.39695,0.80752 1.17388,1.32853 1.765,1.18366 1.51699,1.47445 -0.8094,0.94907 -1.29884,-0.29331 -1.93311,-0.28333 -2.25622,0.0355 -0.66642,0.6577 1.0497,2.00192 3.89208,3.04866 2.25589,0.83075 2.46679,0.84327 4.32487,0.25685 1.80302,-0.56902 1.98235,-0.56531 2.3303,0.0483 0.20733,0.36563 1.04915,0.78448 1.87071,0.9308 1.66735,0.29695 2.90066,0.83608 2.89315,1.26469 -0.003,0.15569 -0.59774,0.66173 -1.32222,1.12454 -1.2913,0.8249 -1.33547,0.82689 -2.24347,0.10131 -0.9065,-0.72442 -0.95022,-0.72336 -2.05,0.0495 -0.61806,0.43434 -1.30468,0.78971 -1.5258,0.78971 -0.22114,0 -0.30762,0.35637 -0.1922,0.79197 0.1767,0.66687 0.0122,0.79197 -1.04068,0.79197 -1.02093,0 -1.25053,0.15997 -1.25053,0.87119 0,0.67757 -0.10691,0.76557 -0.48149,0.39598 -0.55327,-0.54603 -2.17836,-0.63728 -2.48989,-0.13978 -0.22972,0.36683 1.38408,1.97202 2.97138,2.95553 0.55172,0.34182 2.35732,1.09756 4.01245,1.67941 1.65512,0.58184 3.29438,1.3053 3.64279,1.60767 0.8263,0.71716 2.28611,0.69435 3.74907,-0.0585 0.93878,-0.48315 1.23757,-0.5024 1.49851,-0.0966 0.4594,0.71447 0.42026,0.93674 -0.26363,1.49689 -0.33102,0.27112 -0.60187,0.75749 -0.60187,1.08082 0,0.35985 -0.23344,0.49946 -0.60186,0.35993 -0.33103,-0.12542 -0.60188,-0.0554 -0.60188,0.15562 0,0.21098 0.003,0.51722 0.004,0.68056 0.003,0.16335 0.31883,0.30704 0.70218,0.31933 0.38335,0.012 1.12264,0.25154 1.64288,0.53167 0.69172,0.37247 0.82649,0.62716 0.50155,0.94784 -0.70053,0.69136 -0.51991,2.45439 0.36523,3.56494 0.49588,0.62215 0.65136,1.11218 0.40124,1.26472 -0.72358,0.44135 -0.43458,0.98777 0.47106,0.89062 0.7371,-0.079 0.93564,0.17792 1.22734,1.58863 0.27033,1.30736 0.52786,1.68296 1.1539,1.68296 0.62332,0 0.74821,0.17943 0.55121,0.79196 -0.14604,0.45433 -0.0721,0.79198 0.1736,0.79198 0.23554,0 0.42827,0.2673 0.42827,0.59398 0,0.32669 -0.18055,0.59399 -0.40123,0.59399 -0.22069,0 -0.40126,0.17819 -0.40126,0.39599 0,0.21779 0.23609,0.39599 0.52465,0.39599 0.55971,0 1.88282,-2.59797 1.88282,-3.69694 0,-0.36242 0.19122,-0.65892 0.42492,-0.65892 0.23371,0 0.32105,-0.16589 0.19408,-0.36863 -0.12693,-0.20275 -0.0473,-0.48055 0.17694,-0.61735 0.22428,-0.13679 0.40779,-0.94048 0.40779,-1.78595 0,-0.84546 0.18055,-1.64734 0.40123,-1.78194 0.23026,-0.1404 0.40126,0.21819 0.40126,0.84158 0,0.59746 0.34185,1.81079 0.75968,2.69628 0.41782,0.8855 0.86766,2.08037 0.99965,2.65528 0.35918,1.56459 1.45062,1.81155 1.45062,0.32824 0,-0.64655 0.18057,-1.17554 0.40125,-1.17554 0.22068,0 0.40124,0.54511 0.40124,1.21134 0,0.66623 0.14786,1.12112 0.32863,1.01088 0.18076,-0.1103 0.25557,0.29089 0.16628,0.89141 -0.0893,0.60053 0.0976,1.97212 0.41557,3.04801 0.57136,1.9338 1.20784,2.42366 1.39063,1.07023 0.21659,-1.60363 1.11402,-4.45995 1.40132,-4.45995 0.1705,0 0.31,0.50054 0.31,1.11229 0,0.61175 0.2651,1.45817 0.58911,1.88095 0.32401,0.42275 0.59485,1.16074 0.60187,1.63995 0.007,0.47921 0.29978,1.02982 0.65059,1.22357 0.75782,0.41856 0.81364,0.8752 0.156,1.27633 -0.28363,0.17299 -0.36752,0.63683 -0.20603,1.139 0.14984,0.46594 0.4246,0.75436 0.61056,0.64095 0.18593,-0.11344 0.40005,-0.0227 0.4758,0.20157 0.0758,0.22429 0.85856,0.50746 1.73956,0.62925 1.13906,0.15748 1.43526,0.10627 1.02528,-0.17744 -0.67318,-0.46574 -0.78955,-3.60952 -0.36843,-9.95189 0.16818,-2.53305 0.12056,-4.43287 -0.12238,-4.88085 -0.35387,-0.65254 -0.30587,-0.68493 0.4351,-0.29357 0.74813,0.39515 0.83898,0.83129 0.89298,4.28686 0.0331,2.11584 0.13937,3.31237 0.23613,2.65899 0.23189,-1.56507 0.79076,-2.17793 1.98611,-2.17793 1.53347,0 2.53257,0.71395 2.53257,1.80981 0,0.54449 0.28893,1.42517 0.64209,1.95707 0.70542,1.06252 1.46547,3.86546 0.96546,3.56048 -0.64249,-0.39188 -1.27567,0.96326 -1.00929,2.16015 0.22396,1.00635 0.46053,1.20419 1.43985,1.20419 0.97614,0 1.17184,-0.16205 1.17184,-0.9703 0,-0.53366 0.23545,-1.1128 0.52322,-1.28697 0.59988,-0.36308 1.37258,-1.98937 2.69043,-5.66252 1.1526,-3.21256 1.45123,-3.55561 1.78594,-2.05164 0.14619,0.65701 0.59511,1.56921 0.99753,2.02713 0.73156,0.83244 0.7317,0.83234 1.00062,-0.58225 0.14785,-0.77813 0.5265,-1.51234 0.84131,-1.63157 0.42948,-0.16264 0.47051,-0.40462 0.16436,-0.96916 -0.3185,-0.58732 -0.27286,-0.7524 0.20798,-0.7524 0.33879,0 0.61599,-0.26728 0.61599,-0.59397 0,-0.3267 0.19988,-0.59399 0.44417,-0.59399 0.2443,0 0.34025,-0.26728 0.21321,-0.59399 -0.12709,-0.32668 -0.034,-0.59398 0.20682,-0.59398 0.28879,0 0.26777,-0.20216 -0.0617,-0.59398 -0.41878,-0.49799 -0.35393,-0.59398 0.40125,-0.59398 0.70805,0 0.80513,-0.11375 0.45385,-0.53142 -0.24578,-0.29228 -0.31304,-0.65996 -0.14938,-0.81705 0.1636,-0.15709 0.5863,-1.47715 0.93933,-2.93348 0.67241,-2.77379 0.93662,-2.69281 1.35825,0.41633 0.13998,1.03192 0.51402,2.1324 0.83129,2.4455 0.31727,0.31312 0.46777,0.84984 0.33446,1.19271 -0.17484,0.44965 0.001,0.62339 0.63173,0.62339 0.65948,0 0.85716,0.2188 0.80506,0.89099 -0.11951,1.54112 0.41264,2.59885 1.20465,2.39443 0.62436,-0.16113 0.71413,0.0603 0.66057,1.62998 -0.0341,0.99902 0.0581,1.81642 0.20478,1.81642 0.53085,0 1.12659,-5.09438 1.395,-11.92876 l 0.27406,-6.97888 -2.36526,-0.87564 c -2.29333,-0.849 -2.4507,-0.8566 -5.17397,-0.25008 -4.29857,0.95735 -10.64297,1.85853 -11.10414,1.57723 -0.2267,-0.13829 -0.30684,-0.77115 -0.1781,-1.40642 0.16514,-0.81488 0.0588,-1.22134 -0.36082,-1.38031 -0.32719,-0.12391 -0.59489,-0.41493 -0.59489,-0.64671 0,-0.2318 -0.31598,-0.77411 -0.70217,-1.20517 -0.68903,-0.76904 -0.67213,-0.77899 0.9028,-0.53052 0.88272,0.13918 1.85864,0.25515 2.16871,0.25755 0.4308,0.003 0.39248,0.19112 -0.16251,0.79634 -1.15515,1.25973 0.17172,1.01343 2.14665,-0.39846 1.86893,-1.33613 2.02319,-1.76052 0.86269,-2.37346 -1.07304,-0.56675 -1.01321,-1.42943 0.15135,-2.18249 0.77944,-0.50402 1.14624,-0.53026 2.00622,-0.14352 1.15947,0.52137 1.38895,1.43146 0.45053,1.78685 -0.33102,0.12542 -0.60186,0.4024 -0.60186,0.61563 0,0.40238 4.99101,-2.16142 5.97735,-3.07047 0.65842,-0.60682 0.0664,-2.39092 -3.45774,-10.42053 -1.18302,-2.69544 -2.08126,-4.96957 -1.99608,-5.05362 0.0853,-0.0841 0.95016,1.28989 1.92218,3.0532 1.76822,3.20762 3.53174,5.68792 3.83289,5.39073 0.0881,-0.0869 -0.72061,-2.18821 -1.797,-4.66959 -2.47534,-5.70647 -2.91454,-7.27866 -1.05551,-3.7784 0.79256,1.49224 1.5211,2.63414 1.61895,2.53756 0.0978,-0.0965 -0.36901,-1.48461 -1.03752,-3.08453 -2.25692,-5.40144 -1.01954,-3.58278 2.23563,3.28588 3.02081,6.37411 3.30061,6.81575 4.24757,6.70476 1.40153,-0.1643 2.16086,0.7829 1.48451,1.85172 -0.28017,0.44276 -0.38475,0.92801 -0.2324,1.07837 0.15235,0.15036 2.40251,-0.41918 5.00035,-1.26564 5.57746,-1.81729 5.06888,-1.58789 4.72783,-2.1325 -0.20328,-0.32461 -0.41968,-0.32431 -0.81703,10e-4 -0.80639,0.66049 -2.18243,-0.17476 -1.91995,-1.16538 0.53975,-2.03689 3.23178,-2.72607 3.02869,-0.77537 -0.14407,1.38334 1.0973,2.44567 2.46259,2.10749 0.57613,-0.14263 0.94023,-0.43081 0.80907,-0.6402 -0.13118,-0.20942 -0.50609,-0.27938 -0.83323,-0.15549 -0.97788,0.37034 -0.38822,-0.61727 0.99885,-1.67292 l 1.28211,-0.97583 v 1.30653 c 0,0.7186 0.29881,1.6324 0.66404,2.0307 0.61903,0.67506 0.61467,0.77802 -0.0645,1.51855 -0.79358,0.86544 -0.78989,0.87796 0.44738,1.51204 1.58952,0.81462 6.97786,-0.5869 6.97786,-1.81496 0,-0.34949 -0.2368,-0.48652 -0.60185,-0.34828 -0.36662,0.13889 -0.60188,8e-4 -0.60188,-0.35361 0,-0.63418 -0.62574,-0.78817 -0.96985,-0.23868 -0.25924,0.41397 -2.24009,0.0947 -2.24009,-0.36095 0,-0.17694 1.00526,-0.61013 2.23392,-0.96264 2.53427,-0.72709 2.73164,-1.52555 0.42447,-1.71724 -1.30912,-0.10881 -1.45995,-0.22568 -1.22673,-0.95088 0.20821,-0.64741 0.1277,-0.77449 -0.37126,-0.58556 -0.37716,0.14278 -0.84637,-0.0519 -1.14974,-0.47726 -0.28189,-0.39522 -0.93185,-0.84934 -1.44435,-1.00916 -0.61005,-0.19025 -0.85195,-0.496 -0.70053,-0.88543 0.14756,-0.37967 -0.0596,-0.66993 -0.57282,-0.8024 -1.20976,-0.31221 -0.9875,-0.79591 1.00143,-2.17949 1.90611,-1.32594 2.3341,-2.29153 1.01571,-2.29153 -0.53728,0 -0.71603,-0.18998 -0.55893,-0.59399 0.16987,-0.43688 -0.0532,-0.59398 -0.8438,-0.59398 -0.88163,0 -1.0538,-0.16011 -0.9581,-0.89099 0.0641,-0.49003 -0.0238,-1.11371 -0.19559,-1.38596 -0.17173,-0.27224 -0.13604,-0.49498 0.0793,-0.49498 0.21531,0 0.45167,0.13933 0.52523,0.3096 0.23173,0.5364 5.21334,3.65106 6.2504,3.90795 0.60492,0.14982 1.11234,0.0522 1.30191,-0.25055 0.17085,-0.27283 0.90378,-0.56422 1.62872,-0.64752 0.72494,-0.0833 1.37273,-0.20539 1.43952,-0.2713 0.0667,-0.0659 0.0122,-0.78311 -0.12087,-1.59375 -0.19271,-1.17203 -0.38589,-1.42895 -0.94322,-1.25438 -0.41868,0.13111 -0.7957,-0.0244 -0.93641,-0.38624 -0.12952,-0.33319 -0.53138,-0.60578 -0.89293,-0.60578 -0.44811,0 -0.57588,-0.20964 -0.40136,-0.65847 0.16407,-0.42199 -0.13755,-1.06391 -0.83999,-1.78745 -1.03565,-1.06686 -1.05808,-1.1664 -0.40722,-1.80873 0.5696,-0.56214 0.82553,-0.59545 1.47931,-0.19249 0.43482,0.26798 1.31363,0.48724 1.95294,0.48724 0.82494,0 1.22331,0.22992 1.37225,0.79198 0.28416,1.07241 1.15441,0.99621 2.29395,-0.20088 0.92546,-0.97222 0.92899,-1.00465 0.17024,-1.55984 -0.64332,-0.47072 -0.69394,-0.69795 -0.29813,-1.33847 0.42547,-0.68854 0.33917,-0.80316 -0.8025,-1.06589 -0.88039,-0.20261 -1.06029,-0.34902 -0.57703,-0.46963 0.94334,-0.23542 0.88593,-0.59781 -0.29372,-1.85399 -0.54773,-0.58328 -1.18409,-1.40759 -1.41415,-1.83181 -0.38299,-0.70626 -0.3125,-0.75042 0.83588,-0.52375 0.84522,0.16681 1.3631,0.0735 1.5883,-0.28606 0.47062,-0.75152 0.10102,-1.1654 -1.04093,-1.1654 -0.98311,0 -1.31277,-0.54191 -0.59571,-0.97928 0.21105,-0.1287 0.28123,-0.49765 0.15595,-0.81984 -0.1614,-0.41512 -0.0394,-0.51445 0.41877,-0.34094 0.42926,0.16257 0.64653,0.031 0.64653,-0.3915 0,-1.06136 0.55298,-0.71476 1.51665,0.95066 0.50313,0.8695 1.18023,1.5809 1.50467,1.5809 0.82507,0 0.74119,-0.57765 -0.41322,-2.84593 -0.55172,-1.08405 -1.00311,-2.04545 -1.00311,-2.13646 0,-0.45195 1.14834,-0.0871 1.34883,0.42852 0.12709,0.32671 0.41718,0.59399 0.64479,0.59399 0.56568,0 0.52049,-1.02887 -0.0876,-1.99741 -0.41208,-0.6562 -0.39658,-0.86312 0.0869,-1.15994 0.39309,-0.24134 0.55038,-0.88121 0.47383,-1.92757 -0.0631,-0.86147 0.0784,-1.68406 0.31438,-1.82797 0.25551,-0.15584 0.42898,0.0955 0.42898,0.62151 0,0.48573 0.29576,1.2057 0.65725,1.5999 0.55478,0.60501 0.57337,0.81645 0.11919,1.35646 -0.45641,0.54275 -0.43439,0.69695 0.14528,1.01708 0.84439,0.46635 0.89218,1.12997 0.0815,1.12997 -0.33102,0 -0.60186,0.16769 -0.60186,0.37262 0,0.74422 0.80534,0.83423 2.00164,0.2237 1.08246,-0.55242 1.24932,-0.55563 1.45454,-0.0279 0.12754,0.3279 -0.14664,1.07094 -0.60908,1.6512 -1.03366,1.29687 -1.05621,1.92368 -0.10297,2.86439 0.64033,0.63195 0.77048,1.66442 0.98444,7.80996 0.21822,6.26698 0.16978,7.16549 -0.42098,7.80972 -0.57702,0.62923 -0.58809,0.77638 -0.0815,1.08475 0.43871,0.26713 0.62051,1.41234 0.72357,4.55809 0.15876,4.84536 -0.1005,5.29816 -3.04668,5.3199 -1.34582,0.0105 -1.70847,0.15868 -1.72039,0.70558 -0.007,0.38115 -10e-4,4.33573 0.0151,8.78796 0.0314,8.45327 0.21019,9.37581 1.74063,8.98084 1.02824,-0.26537 2.9718,0.54983 5.24255,2.19892 1.36241,0.98943 1.81692,1.58402 1.82869,2.39222 0.009,0.59156 0.3153,1.69571 0.68155,2.45369 0.65483,1.35517 0.64742,1.40206 -0.44369,2.81385 -0.61028,0.78965 -1.36134,1.53106 -1.66902,1.64758 -0.30767,0.11658 -0.5567,0.50464 -0.55338,0.86247 0.0106,1.09016 0.9995,3.54003 1.76815,4.37826 0.66818,0.72866 0.67434,0.84227 0.0776,1.43112 -0.51976,0.51296 -0.64813,1.5209 -0.64813,5.08954 0,4.41811 -0.0106,4.46667 -1.45447,6.80251 l -1.45448,2.35265 0.5153,2.77192 c 0.87704,4.71758 0.92808,6.40151 0.22413,7.39337 -0.36445,0.5135 -0.63918,1.69986 -0.63918,2.76006 0,2.69558 -0.2582,3.11219 -1.92878,3.11219 -1.67015,0 -1.31138,0.65971 0.46797,0.8605 0.88107,0.0994 1.3598,0.52294 2.06311,1.8252 0.50371,0.93263 1.00875,2.04635 1.12231,2.47493 0.17112,0.64581 0.55504,0.77921 2.24262,0.77921 1.78753,0 2.05943,0.1088 2.22692,0.89096 0.10495,0.49006 0.37672,5.10767 0.60398,10.26138 0.35479,8.0459 0.32815,9.60833 -0.18851,11.05352 -0.9174,2.56617 -1.18304,2.74145 -4.15478,2.74145 -2.22851,0 -2.74484,0.12916 -3.16421,0.79198 -0.46196,0.72999 -0.93572,0.79197 -6.053,0.79197 -5.04225,0 -5.61849,-0.0727 -6.27807,-0.79197 -0.65945,-0.71915 -1.23581,-0.79198 -6.26734,-0.79198 -6.40891,0 -5.98421,0.26983 -6.88308,-4.37317 -0.51294,-2.64962 -0.75835,-3.13562 -2.39146,-4.73588 -1.1195,-1.09699 -1.99119,-2.39232 -2.26505,-3.36591 -0.58093,-2.06516 -0.60724,-26.35009 -0.0308,-28.3986 1.49218,-5.30246 8.12203,-7.02096 12.06687,-3.12781 1.86049,1.83613 2.28403,3.44827 2.34977,8.94381 0.0285,2.38884 0.13164,4.42205 0.2292,4.51826 0.0975,0.0963 1.49448,0.25456 3.10446,0.35188 2.34364,0.14173 3.03307,0.0512 3.45812,-0.45433 1.07689,-1.28057 0.25432,-1.82934 -2.74214,-1.82934 -2.31605,0 -2.87637,-0.12766 -3.20265,-0.72926 -0.23657,-0.43625 -0.40729,-6.32063 -0.42491,-14.64602 l -0.0294,-13.91675 1.01266,-0.86896 c 0.97078,-0.83302 1.01268,-1.05367 1.01268,-5.33294 0,-4.35205 0.026,-4.48182 1.03628,-5.17545 3.48975,-2.39589 4.79573,-3.97424 4.37385,-5.28605 -0.3,-0.93281 -0.99645,-0.64157 -0.99645,0.41669 0,0.40989 -0.18503,0.85811 -0.41119,0.99604 -0.22615,0.13799 -0.36157,0.0371 -0.30093,-0.22412 0.0606,-0.2612 -0.1154,-0.55659 -0.3913,-0.65642 -0.27585,-0.0998 -0.50156,0.10068 -0.50156,0.4455 0,0.34484 -0.26449,0.62698 -0.58775,0.62698 -0.32326,0 -0.78101,0.35639 -1.01721,0.79198 -0.76557,1.41171 -1.20374,0.84363 -1.20374,-1.56059 0,-2.30977 -0.48247,-3.39749 -0.96108,-2.16664 -0.13345,0.34325 -0.24542,1.63413 -0.24879,2.86864 -0.003,1.3724 -0.13755,2.03993 -0.34443,1.71792 -0.25762,-0.40103 -0.54017,-0.25941 -1.18488,0.59399 l -0.8466,1.12061 -0.0122,-1.08897 c -0.016,-1.36016 -0.64312,-1.42353 -0.97995,-0.0989 -0.27645,1.08696 -1.44022,1.37272 -1.44022,0.35363 0,-0.62248 -0.0705,-0.61796 -1.90435,0.12213 -0.36695,0.14816 -0.43124,-0.13755 -0.24159,-1.07324 0.2448,-1.20805 0.21311,-1.25109 -0.60344,-0.81982 -0.474,0.25037 -0.86182,0.6944 -0.86182,0.98676 0,0.29235 -0.27083,0.7534 -0.60186,1.02453 -0.86069,0.70495 -0.74302,1.28555 0.20062,0.98997 0.96147,-0.30116 1.08974,0.40047 0.13907,0.76052 -0.60472,0.229 -0.59933,0.29753 0.0608,0.77388 0.50337,0.36326 0.58333,0.60859 0.2622,0.80445 -0.74912,0.45693 -0.52848,0.99421 0.34046,0.82906 0.90503,-0.17201 1.03745,0.20371 0.321,0.91077 -1.03907,1.02546 1.91138,0.44371 3.65152,-0.71997 0.97112,-0.64943 1.91667,-1.18078 2.10125,-1.18078 0.18458,0 0.29282,3.51936 0.24056,7.82079 l -0.095,7.82078 -3.39847,0.11643 c -2.48296,0.085 -3.59755,0.2942 -4.13737,0.77633 -0.40638,0.36295 -2.10225,2.89439 -3.76861,5.62542 -1.66636,2.73104 -3.23518,5.09644 -3.48628,5.25645 -0.25108,0.16 -3.7411,0.29365 -7.75556,0.29699 -4.01445,0.003 -7.38888,0.14952 -7.4987,0.32491 -0.1098,0.17536 -0.0472,0.98603 0.1392,1.80144 0.43682,1.91147 -0.16624,4.06865 -1.30842,4.68018 -0.48688,0.26068 -1.5172,0.57699 -2.28961,0.70292 l -1.40434,0.22895 -0.11951,2.46966 -0.1195,2.46964 -1.88677,0.0666 c -1.84109,0.0649 -1.82891,0.0721 0.50336,0.29699 2.23588,0.21555 2.47433,0.33963 3.69516,1.92301 0.71779,0.93093 1.20813,1.94188 1.08966,2.24657 -0.31925,0.82104 1.31827,1.51955 2.88311,1.22984 2.3765,-0.44 2.73271,0.32688 3.53787,7.61649 0.64442,5.83421 0.65113,6.48003 0.0758,7.2907 -0.8545,1.20397 -0.79385,2.19027 0.17121,2.78506 1.08033,0.66586 0.98367,2.01633 -0.33351,4.65998 -1.06212,2.13172 -1.12754,2.18272 -3.08421,2.4031 -1.09948,0.12377 -2.67592,0.55767 -3.50318,0.96407 -1.48601,0.72999 -1.52962,0.72848 -3.61897,-0.12617 -2.90664,-1.18896 -8.43494,-1.22662 -10.72605,-0.073 -0.86516,0.43559 -1.89885,0.79197 -2.29711,0.79197 -0.39827,0 -1.39788,-0.35638 -2.22137,-0.79197 -0.82351,-0.43558 -2.08475,-0.79471 -2.80278,-0.79804 -1.79577,-0.009 -2.21621,-0.35412 -3.33925,-2.74636 -0.98958,-2.10794 -1.29453,-4.37538 -0.58843,-4.37538 0.88506,0 1.25442,-1.55348 0.6456,-2.71538 -0.52804,-1.00775 -0.5278,-1.70197 0.001,-6.0424 0.32934,-2.69711 0.72863,-5.70572 0.88732,-6.68579 l 0.28852,-1.78196 2.60611,-0.19799 c 2.54917,-0.19366 2.60878,-0.22394 2.72846,-1.38596 0.0673,-0.65338 0.62719,-1.79478 1.24426,-2.53646 0.98297,-1.18145 1.41515,-1.37667 3.48887,-1.57597 l 2.36692,-0.22751 -2.00623,-0.20595 -2.0062,-0.20598 -0.11951,-2.47492 c -0.11177,-2.31726 -0.18094,-2.47493 -1.08454,-2.47493 -2.97407,0 -4.59064,-2.67796 -3.43205,-5.68539 0.27068,-0.70265 0.23337,-1.10477 -0.13012,-1.40254 -0.3051,-0.24988 -3.47526,-0.4609 -7.89784,-0.52566 l -7.38795,-0.1082 -3.63403,-5.74184 -3.63404,-5.74183 -3.89427,-0.1133 -3.89426,-0.1133 -0.0282,-2.26261 c -0.0154,-1.24444 -0.18338,-2.61898 -0.37305,-3.05458 -0.20164,-0.4631 -0.35655,4.98428 -0.37303,13.11816 -0.022,10.87397 -0.14164,14.00299 -0.54769,14.33561 -0.28573,0.23401 -1.8637,0.47858 -3.50664,0.54347 -2.55178,0.10068 -3.00813,0.22649 -3.13118,0.86251 -0.0792,0.4095 0.0995,0.8968 0.39699,1.0829 0.67441,0.42181 5.98394,0.44782 6.64611,0.0325 0.32794,-0.20565 0.53734,-1.98706 0.63931,-5.43878 0.16666,-5.64184 0.54487,-6.85899 2.68289,-8.63446 1.2258,-1.01794 3.49133,-1.84578 5.0175,-1.83343 2.51777,0.0204 5.5768,2.57985 6.56511,5.49302 0.5838,1.72079 0.62722,26.54332 0.05,28.594 -0.25216,0.8959 -1.14927,2.10805 -2.40521,3.24981 -1.31695,1.19724 -2.00306,2.1413 -2.00306,2.75615 0,1.54652 -1.2202,5.20227 -1.91314,5.73182 -0.44246,0.33812 -2.30937,0.49499 -5.89128,0.49499 -4.80905,0 -5.28513,0.0656 -5.74476,0.79198 -0.46368,0.73275 -0.93572,0.79197 -6.31241,0.79197 -5.37668,0 -5.8487,-0.0593 -6.31239,-0.79197 z m 106.62341,-47.51868 c -0.13634,-0.2178 -0.42856,-0.396 -0.64924,-0.396 -0.22068,0 -0.28965,0.1782 -0.15326,0.396 0.13633,0.2178 0.42853,0.39598 0.64922,0.39598 0.22068,0 0.28966,-0.17818 0.15328,-0.39598 z m -101.05026,-3.6319 c -0.57623,-0.31826 -0.55286,-0.53482 0.22914,-2.12336 0.94874,-1.92719 0.80008,-2.33596 -1.01008,-2.77725 l -1.11895,-0.27279 0.0997,2.66418 c 0.0848,2.26763 0.22153,2.70974 0.91833,2.97019 1.03227,0.38587 1.74276,0.015 0.88189,-0.46097 z m 106.86828,-3.09992 c 0,-0.21779 -0.0796,-0.39598 -0.17693,-0.39598 -0.0974,0 -0.28854,0.17819 -0.42493,0.39598 -0.13634,0.2178 -0.0567,0.39598 0.17693,0.39598 0.23371,0 0.42493,-0.17818 0.42493,-0.39598 z m -99.35325,-5.80987 c -0.61986,-0.4878 -1.19273,-0.82203 -1.27306,-0.74275 -0.0804,0.0793 0.36402,0.90724 0.98743,1.83994 1.05107,1.5725 1.14363,1.6265 1.27306,0.74274 0.0985,-0.67179 -0.19305,-1.21481 -0.98743,-1.83993 z m -12.6084,-1.49857 c 0.66093,-0.78597 0.14027,-1.60329 -0.62302,-0.97807 -0.62496,0.51187 -0.76851,1.5547 -0.21402,1.5547 0.19366,0 0.57033,-0.2595 0.83704,-0.57663 z m 97.02016,0.0815 c 0.60782,-0.74463 1.0323,-3.06891 0.56048,-3.06891 -0.22069,0 -0.52193,0.54221 -0.66941,1.20491 -0.21057,0.94617 -0.5365,1.25786 -1.51775,1.45155 -1.07589,0.21235 -1.14066,0.28871 -0.46591,0.54921 1.15719,0.44676 1.64216,0.41507 2.09259,-0.13679 z m -73.0535,-0.73698 c -0.56069,-0.3219 -0.62091,-0.53904 -0.26639,-0.96058 0.25192,-0.29957 0.34154,-0.73068 0.19918,-0.958 -0.1424,-0.22734 0.0448,-0.41335 0.41584,-0.41335 0.55422,0 0.58548,-0.10611 0.17517,-0.59397 -0.4186,-0.49779 -0.35462,-0.59399 0.39504,-0.59399 0.63031,0 0.82634,-0.17546 0.6636,-0.59398 -0.12709,-0.32669 -0.034,-0.59399 0.20682,-0.59399 0.28878,0 0.26777,-0.20215 -0.0617,-0.59397 -0.40842,-0.48568 -0.38309,-0.594 0.13891,-0.594 0.4205,0 0.55427,-0.21637 0.3919,-0.63393 -0.13558,-0.34868 -0.0335,-0.76387 0.22681,-0.92265 0.51128,-0.31184 0.18926,-1.61132 -0.3993,-1.61132 -0.19708,0 -0.35831,0.27538 -0.35831,0.61197 0,0.80365 -1.90069,2.66706 -2.40602,2.35882 -0.21618,-0.13185 -0.88992,0.21494 -1.49719,0.77067 -1.16867,1.06945 -1.90825,1.26564 -2.31608,0.61441 -0.92693,-1.48016 -1.04963,1.0941 -0.13634,2.8593 0.39682,0.76691 3.32518,2.2106 4.54998,2.24316 0.75194,0.0201 0.75685,-0.004 0.0781,-0.3946 z m -7.49864,-2.21656 c 0.74936,0.19341 1.20129,-0.39952 1.20129,-1.57608 0,-0.40149 -0.22462,-0.51889 -0.6701,-0.3502 -0.92468,0.3502 -1.32275,-0.43414 -1.32998,-2.62058 -0.006,-1.82442 0.47964,-2.73042 1.00983,-1.88379 0.14786,0.2362 0.52058,0.33414 0.82816,0.21765 0.30759,-0.11643 1.32753,0.11045 2.26657,0.50432 1.59322,0.66824 4.72135,0.73801 4.71353,0.10509 -0.006,-0.54301 -2.12665,-1.21474 -2.74896,-0.87103 -0.47486,0.26225 -0.95446,-0.0135 -1.91022,-1.10018 -0.7019,-0.79769 -1.41348,-1.31781 -1.5813,-1.1558 -0.16781,0.16201 0.004,0.63166 0.3818,1.04366 0.65993,0.71966 0.6393,0.74672 -0.52497,0.68894 -1.25608,-0.0624 -2.40533,-1.13957 -2.42782,-2.27566 -0.007,-0.35449 -0.27601,-0.86011 -0.59776,-1.12364 -0.38871,-0.31838 -0.6243,-1.4308 -0.70217,-3.3154 -0.0645,-1.55994 -0.29774,-2.83626 -0.51842,-2.83626 -0.24935,0 -0.44257,2.81076 -0.51042,7.4248 -0.0872,5.93104 -0.21859,7.42479 -0.65304,7.42479 -0.29913,0 -0.77685,-0.27701 -1.06158,-0.6156 -0.7864,-0.93514 -1.98804,-1.49211 -1.98804,-0.92145 0,0.66729 3.03442,3.34916 4.43915,3.92339 0.64806,0.26492 1.20719,0.7719 1.24248,1.12661 0.0353,0.35471 0.13832,0.0483 0.229,-0.6809 0.13209,-1.06327 0.31293,-1.28758 0.91297,-1.13272 z m 78.85447,0.6965 c -0.14771,-0.23584 -0.4559,-0.31451 -0.68489,-0.17483 -0.26959,0.16442 -0.22854,0.36849 0.11646,0.5789 0.64391,0.39273 0.937,0.18441 0.56847,-0.40407 z m -10.64542,-0.56538 c 0,-0.0822 -0.27086,-0.37134 -0.60188,-0.64247 -0.49293,-0.40374 -0.60185,-0.37668 -0.60185,0.14951 0,0.35335 0.27082,0.64246 0.60185,0.64246 0.33102,0 0.60188,-0.0674 0.60188,-0.1495 z m 0,-4.94987 c 0,-0.40891 0.25553,-0.95279 0.56785,-1.2086 0.42771,-0.35031 0.47722,-0.77701 0.20062,-1.72883 -0.20198,-0.69504 -0.36724,-1.30943 -0.36724,-1.36532 0,-0.0558 0.5638,-0.10162 1.25288,-0.10162 1.09506,0 1.18675,-0.0786 0.72797,-0.62417 -0.40435,-0.48083 -0.41395,-0.69182 -0.0418,-0.91881 0.46889,-0.28601 1.27091,-2.49679 1.27091,-3.50326 0,-0.2737 -0.27084,-0.49761 -0.60187,-0.49761 -0.33102,0 -0.60186,-0.17819 -0.60186,-0.39598 0,-0.61873 -0.0713,-0.9253 -0.43334,-1.86528 -0.31673,-0.82213 -0.27488,-0.84729 0.68843,-0.41412 0.87089,0.39161 1.08683,0.35328 1.43125,-0.25412 0.37674,-0.66435 0.43942,-0.64896 0.87998,0.21613 0.59357,1.1655 2.10431,1.13382 7.22847,-0.1516 3.63849,-0.91273 5.09716,-1.90666 3.88935,-2.65018 -0.30815,-0.18969 -0.44917,-0.62988 -0.31353,-0.97869 0.31951,-0.82176 -0.0747,-0.8058 -1.02321,0.0414 -0.61174,0.54635 -0.9017,0.58573 -1.51766,0.20611 -0.49149,-0.30292 -0.84899,-0.3295 -1.00839,-0.0749 -0.36681,0.58573 -0.99399,0.0533 -0.99399,-0.84384 0,-0.67823 -0.1151,-0.72177 -0.86333,-0.32656 -0.74346,0.39268 -0.82737,0.36352 -0.60437,-0.20996 0.2047,-0.52647 0.0914,-0.61346 -0.54104,-0.41537 -0.8179,0.2562 -1.12322,-0.35086 -0.39872,-0.79278 0.65532,-0.39969 0.45955,-0.88253 -0.45336,-1.11815 -0.54738,-0.14127 -0.77285,-0.43079 -0.6272,-0.80538 0.32369,-0.83244 -0.99823,-1.23373 -1.56118,-0.47395 -0.25083,0.33855 -0.57056,0.61554 -0.71051,0.61554 -0.37162,0 -6.82689,4.76145 -7.17426,5.29179 -0.16213,0.24753 -0.29755,0.88151 -0.30094,1.40884 -0.003,0.52735 -0.29115,1.2696 -0.63948,1.64948 -0.56957,0.62111 -0.57171,0.78378 -0.0212,1.61514 0.41199,0.62219 0.70213,2.47817 0.88738,5.67631 0.15135,2.61354 0.45388,4.97462 0.67222,5.24686 0.5796,0.72273 1.10118,0.60502 1.10118,-0.24851 z m 28.28769,0.34752 c -0.13633,-0.2178 -0.42854,-0.39601 -0.64922,-0.39601 -0.22068,0 -0.28965,0.17821 -0.15326,0.39601 0.13634,0.21778 0.42854,0.39598 0.64922,0.39598 0.22069,0 0.28966,-0.1782 0.15326,-0.39598 z m -113.31304,-4.63926 c 1.00177,-0.584 1.16534,-0.9208 1.16534,-2.3993 0,-1.0458 -0.15728,-1.62402 -0.40123,-1.47523 -0.22069,0.13455 -0.40126,0.73476 -0.40126,1.33366 0,0.5989 -0.28378,1.4348 -0.63066,1.85759 -0.5984,0.72934 -0.61944,0.70283 -0.41126,-0.51832 0.25984,-1.5243 -0.41087,-1.73355 -0.96297,-0.30042 -0.34941,0.90696 -0.18546,2.18138 0.28063,2.18138 0.10782,0 0.72049,-0.30571 1.36141,-0.67936 z m 112.49342,0.31073 c 0.12693,-0.20274 0.0474,-0.48057 -0.17694,-0.61736 -0.2243,-0.13679 -0.40779,0.029 -0.40779,0.36863 0,0.69557 0.24078,0.79798 0.58473,0.24873 z m -2.99219,-1.21533 c 0,-0.65337 -0.0839,-1.18796 -0.1865,-1.18796 -0.38501,0 -1.04457,1.61593 -0.81149,1.98813 0.48418,0.77316 0.99799,0.3612 0.99799,-0.80017 z m 4.81493,-1.18796 c 0,-0.2178 -0.2815,-0.39599 -0.62555,-0.39599 -0.34405,0 -0.51396,0.17819 -0.37757,0.39599 0.13634,0.21778 0.41789,0.39598 0.62555,0.39598 0.20765,0 0.37757,-0.1782 0.37757,-0.39598 z m -1.00312,-1.58396 c 0.13634,-0.21779 0.12451,-0.59321 -0.0266,-0.83426 -0.26969,-0.43063 -0.95595,0.22928 -0.9705,0.93325 -0.009,0.43406 0.70771,0.3629 0.99697,-0.0989 z m -106.53028,-0.39599 c 0,-0.2178 -0.37178,-0.39599 -0.82618,-0.39599 -0.45439,0 -0.71456,0.17819 -0.57819,0.39599 0.13634,0.21779 0.50817,0.39599 0.82619,0.39599 0.318,0 0.57818,-0.1782 0.57818,-0.39599 z m 85.06373,-0.198 c 0,-0.32669 -0.16732,-0.59397 -0.37183,-0.59397 -0.2045,0 -0.44889,-0.31185 -0.54309,-0.69298 -0.0942,-0.38116 -0.17025,-0.1139 -0.16898,0.59397 0.001,0.81429 0.20092,1.28697 0.54309,1.28697 0.29745,0 0.54081,-0.2673 0.54081,-0.59399 z m 17.65474,-0.19799 c 0,-0.21779 -0.0796,-0.39598 -0.17695,-0.39598 -0.0974,0 -0.28854,0.17819 -0.42492,0.39598 -0.13634,0.2178 -0.0567,0.39599 0.17694,0.39599 0.23371,0 0.42493,-0.17819 0.42493,-0.39599 z m -109.13838,-0.79199 c 0.80372,-0.79317 1.08922,-1.97993 0.47632,-1.97993 -0.39058,0 -2.48253,2.1038 -2.48253,2.4966 0,0.56502 1.23153,0.24787 2.00621,-0.51667 z m 5.61742,-0.78344 c 0,-0.41917 -1.67839,-1.65203 -1.92188,-1.41172 -0.0905,0.0893 -0.0156,0.39714 0.1664,0.68387 0.1821,0.28674 0.27681,0.84667 0.21043,1.24428 -0.10297,0.61666 0.001,0.65827 0.7122,0.28306 0.45806,-0.24195 0.83285,-0.60171 0.83285,-0.79949 z m 6.82115,-1.1305 c 0,-0.5156 -0.47699,-0.85851 -0.865,-0.62184 -0.41497,0.2531 -0.0572,0.95184 0.48743,0.95184 0.20767,0 0.37757,-0.14847 0.37757,-0.33 z m -4.81493,-2.0368 c 0,-0.43057 -0.42925,-1.06042 -0.95388,-1.39968 -1.0036,-0.64897 -3.4598,-1.45818 -3.4598,-1.13986 0,0.39736 3.43803,3.31278 3.91213,3.31745 0.27585,0.003 0.50155,-0.34734 0.50155,-0.77791 z m -7.22238,-0.009 c 0,-0.21779 -0.18057,-0.39599 -0.40126,-0.39599 -0.22068,0 -0.40123,0.1782 -0.40123,0.39599 0,0.21779 0.18055,0.39598 0.40123,0.39598 0.22069,0 0.40126,-0.17819 0.40126,-0.39598 z m 6.71605,-6.60924 c -0.37306,-0.36818 -0.81279,-0.53668 -0.97717,-0.37446 -0.16437,0.16222 -0.0333,0.46073 0.29138,0.66334 0.97687,0.6097 1.41099,0.42682 0.68579,-0.28888 z m 99.21236,-0.51855 c 0,-0.4356 -0.18057,-0.79199 -0.40125,-0.79199 -0.22068,0 -0.40124,0.0745 -0.40124,0.1656 0,0.0911 -0.10965,0.44748 -0.24355,0.79198 -0.15983,0.41105 -0.0218,0.62638 0.40124,0.62638 0.37731,0 0.6448,-0.32855 0.6448,-0.79197 z m -102.31722,-5.14786 c 0,-0.21779 -0.18057,-0.396 -0.40125,-0.396 -0.22069,0 -0.40124,0.17821 -0.40124,0.396 0,0.21779 0.18055,0.39599 0.40124,0.39599 0.22068,0 0.40125,-0.1782 0.40125,-0.39599 z m -3.02647,-0.36862 c 0.12693,-0.20275 0.0663,-0.46903 -0.13483,-0.59173 -0.20116,-0.12271 -0.46928,0.0433 -0.59581,0.36863 -0.24945,0.64156 0.35341,0.8256 0.73071,0.2231 z m 5.83517,-4.55788 c 0,-0.0961 -0.18055,-0.28475 -0.40124,-0.41936 -0.22068,-0.13455 -0.40125,-0.056 -0.40125,0.17463 0,0.23065 0.18057,0.41936 0.40125,0.41936 0.22069,0 0.40124,-0.0786 0.40124,-0.17463 z m 90.48053,-3.78527 c 0.31665,-0.50563 -1.0128,-0.50563 -1.8056,0 -0.47075,0.30025 -0.36664,0.38519 0.47787,0.38994 0.59385,0.003 1.19133,-0.17214 1.32773,-0.38994 z m -90.48053,-0.79196 c 0,-0.2178 -0.19122,-0.396 -0.42492,-0.396 -0.23371,0 -0.31333,0.1782 -0.17695,0.396 0.13633,0.21779 0.32761,0.39598 0.42492,0.39598 0.0973,0 0.17695,-0.17819 0.17695,-0.39598 z m -2.00623,-0.81537 c 0,-0.20493 -0.18055,-0.37261 -0.40123,-0.37261 -0.22069,0 -0.40124,0.27782 -0.40124,0.61736 0,0.33955 0.18055,0.50721 0.40124,0.37261 0.22068,-0.13455 0.40123,-0.4124 0.40123,-0.61736 z m 4.19594,-5.8891 c 0.29674,-0.47384 -0.45808,-0.94333 -0.99252,-0.61735 -0.44873,0.27372 -0.15414,0.98598 0.40779,0.98598 0.19463,0 0.45777,-0.16587 0.58473,-0.36863 z m 0.21776,-5.15837 c 0,-0.47733 -1.92167,-0.25868 -2.46837,0.28086 -0.237,0.2339 -0.31,0.61834 -0.16224,0.85431 0.30378,0.48506 2.63061,-0.51901 2.63061,-1.13517 z m 100.31099,-0.17247 c 0,-0.30339 -0.275,-0.65578 -0.61114,-0.78307 -0.49861,-0.18883 -0.53295,-0.0872 -0.18651,0.55163 0.49777,0.91792 0.79765,1.00494 0.79765,0.23144 z m -96.64862,-1.69499 c 0.49054,-0.59026 0.45211,-0.63758 -0.3517,-0.43315 -0.49633,0.12616 -1.00353,0.0681 -1.1271,-0.12932 -0.1236,-0.19735 -0.53004,-0.3529 -0.90321,-0.34563 -0.54992,0.0105 -0.499,0.16075 0.26875,0.79196 1.15466,0.94933 1.40924,0.96333 2.11326,0.11614 z m 95.4449,-3.69322 c 0,-0.63224 -0.26305,-0.78932 -1.30404,-0.7788 l -1.30405,0.0134 0.94725,0.7788 c 1.20285,0.98892 1.66084,0.9853 1.66084,-0.0135 z m -96.86463,-2.00927 c 0.31133,-0.255 0.56606,-0.71539 0.56606,-1.02306 0,-0.43863 -0.17506,-0.46697 -0.81077,-0.13127 -0.44593,0.23553 -0.96137,0.33639 -1.14541,0.22413 -0.18405,-0.11225 -0.76713,0.2612 -1.29575,0.82986 l -0.96113,1.03396 1.54047,-0.23501 c 0.84725,-0.12932 1.79519,-0.44368 2.10653,-0.69867 z m -10.42009,-1.08294 c -0.34695,-0.3424 -0.75113,-0.50382 -0.89817,-0.35869 -0.38475,0.37972 0.66395,1.50888 1.1347,1.22174 0.23454,-0.14308 0.13876,-0.49272 -0.23653,-0.86305 z m 35.24444,27.82827 c 0.60771,-0.78629 1.25086,-1.90685 1.42925,-2.49014 0.30335,-0.99183 0.32659,-1.00111 0.35884,-0.14308 0.0189,0.50458 0.49918,1.51867 1.06714,2.25355 l 1.03266,1.33616 -1.25397,-0.46713 c -1.05274,-0.39217 -1.45332,-0.3542 -2.49638,0.23661 l -1.24244,0.70372 z m 9.27453,-7.11456 c 0.41526,-0.65337 0.88561,-1.28208 1.04524,-1.39713 0.1596,-0.1151 0.46831,-0.64964 0.68601,-1.18797 0.36462,-0.90173 0.39779,-0.91246 0.42122,-0.13634 0.0136,0.46336 0.27676,1.04832 0.58393,1.29993 0.30719,0.25158 0.6582,0.83366 0.78005,1.2935 0.16628,0.62753 0.10706,0.72305 -0.23751,0.383 -0.68053,-0.6716 -2.33169,-0.54925 -3.2381,0.23996 -0.79127,0.68898 -0.7915,0.68612 -0.0408,-0.49499 z m 7.39407,-14.09396 c -14.18658,-1.61846 -25.53256,-8.98372 -32.63953,-21.18796 -1.94183,-3.33454 -2.38576,-4.64047 -1.26559,-3.72298 0.33103,0.27113 0.60188,0.71794 0.60188,0.99291 0,0.27497 0.45139,0.79186 1.00309,1.14861 0.55173,0.35676 1.00311,0.9851 1.00311,1.3963 0,0.73052 2.10073,2.79799 2.84298,2.79799 0.20566,0 1.12171,0.5346 2.03563,1.18796 1.97431,1.41146 2.59308,1.46694 3.80709,0.34136 0.73936,-0.68551 0.83194,-0.99634 0.48648,-1.63341 -0.33447,-0.61677 -0.2569,-1.01141 0.35897,-1.82631 1.04744,-1.38592 1.6812,-1.44631 3.36241,-0.32033 1.31745,0.88232 1.59875,0.92107 4.19015,0.57733 3.46525,-0.45967 5.01263,-0.27558 7.73201,0.91988 l 2.14543,0.94313 0.74218,-0.90456 c 0.62984,-0.76762 1.24909,-0.93988 4.09031,-1.13775 2.55223,-0.17776 3.63032,-0.0921 4.53539,0.36084 0.65301,0.32672 1.90621,0.72277 2.78489,0.88011 2.30743,0.41317 3.1744,0.93708 2.6273,1.58766 -0.24268,0.28858 -0.38976,0.76619 -0.32684,1.06136 0.0684,0.32113 -0.12738,0.46035 -0.48749,0.34664 -0.33102,-0.10446 -2.49773,-0.21137 -4.81493,-0.23746 -2.31718,-0.0261 -3.21998,0.0149 -2.0062,0.0907 3.5765,0.22395 4.81492,0.52072 4.81492,1.15383 0,0.43687 -0.41709,0.55658 -1.66206,0.47704 -0.96538,-0.0617 -1.72951,0.0815 -1.823,0.34135 -0.15763,0.4383 1.30916,0.87857 3.66487,1.10007 1.21423,0.11418 1.98776,1.02634 0.87035,1.02634 -0.34192,0 -1.25582,0.29843 -2.03088,0.66319 -1.32753,0.62476 -1.45447,0.62275 -2.19056,-0.0347 -0.65082,-0.58125 -1.20543,-0.65304 -3.31907,-0.42968 l -2.5377,0.2682 0.14073,1.74643 c 0.0773,0.96052 0.3227,1.74642 0.54508,1.74642 0.23093,0 0.29637,-0.42455 0.15258,-0.98998 l -0.25176,-0.98995 h 3.13735 c 1.72553,0 3.30888,0.16448 3.51852,0.3655 0.20966,0.20104 0.90893,0.42378 1.55397,0.495 3.13607,0.3462 0.42132,2.29121 -3.2594,2.33523 -1.67113,0.0201 -2.10087,0.12378 -1.52459,0.36816 0.44138,0.18717 1.4135,0.35286 2.1603,0.36815 0.7468,0.0152 2.0107,0.1945 2.8087,0.39823 0.798,0.2037 2.80512,0.57088 4.46023,0.81594 1.65514,0.24505 3.95661,0.64117 5.1144,0.88026 1.74751,0.36089 2.22457,0.33362 2.8087,-0.16054 1.56149,-1.32091 6.6027,-2.60052 5.91428,-1.50121 -0.13936,0.22267 -1.27861,0.91319 -2.53146,1.5345 -7.02872,3.48561 -16.1216,5.18401 -23.34323,4.36014 z m 50.35613,-10.25936 c -0.13634,-0.21779 -0.0675,-0.39599 0.15325,-0.39599 0.2207,0 0.51284,0.1782 0.64924,0.39599 0.13634,0.21779 0.0675,0.396 -0.15326,0.396 -0.2207,0 -0.51283,-0.17821 -0.64923,-0.396 z m -79.63057,-15.29274 c -1.63226,-1.35547 -2.25276,-2.71568 -2.23648,-4.9027 0.0122,-1.60099 0.1151,-1.79397 1.01638,-1.90035 0.5517,-0.0651 1.27395,-0.21076 1.60497,-0.32363 0.53499,-0.18241 0.53499,-0.2406 0,-0.5238 -0.33102,-0.17521 -1.26081,-0.43523 -2.06621,-0.57781 -0.80538,-0.14264 -1.68516,-0.52183 -1.95504,-0.84275 -0.26988,-0.32094 -0.67724,-0.58353 -0.90523,-0.58353 -0.22802,0 -0.97329,-0.41404 -1.65617,-0.92012 -0.68287,-0.50606 -1.55759,-1.03506 -1.94377,-1.17553 -0.54142,-0.19694 -0.70218,-0.71158 -0.70218,-2.24779 v -1.99237 h 41.92998 41.93001 l -0.006,1.68295 c -0.003,0.92562 -0.11434,2.08389 -0.24741,2.57393 -0.29662,1.09233 -1.60511,1.18367 -1.94217,0.1356 -0.32429,-1.00837 -1.24409,-1.31228 -1.83716,-0.60703 -0.61542,0.73182 -1.45506,0.72959 -1.8716,-0.004 -0.27098,-0.47786 -0.6133,-0.39396 -2.01941,0.49499 -1.11573,0.70536 -1.62611,1.28085 -1.4966,1.68754 0.32827,1.03085 -3.36842,0.74495 -4.97616,-0.38487 -0.93365,-0.6561 -1.62846,-0.85106 -2.45307,-0.6883 -0.72254,0.14264 -1.21444,0.0488 -1.32245,-0.25242 -0.12541,-0.34972 -0.55322,-0.28264 -1.5804,0.24776 -1.31797,0.68056 -1.64453,0.6905 -5.08354,0.15456 -2.02129,-0.315 -3.75532,-0.44461 -3.85339,-0.28802 -0.29801,0.47589 2.85794,1.50283 3.97234,1.2926 0.7622,-0.14383 1.04312,-0.0307 1.04312,0.41998 0,0.33922 -0.18933,0.73226 -0.42073,0.87339 -0.28685,0.17496 -0.29049,0.41151 -0.0121,0.74334 0.36213,0.43063 0.0773,1.14532 -1.01866,2.55686 -0.0616,0.0793 -0.70826,-0.21589 -1.4371,-0.65595 -0.72882,-0.44006 -2.55021,-1.10048 -4.04751,-1.46764 -2.55607,-0.62676 -2.78574,-0.62655 -3.75976,0.003 -0.57057,0.36895 -1.12702,1.00905 -1.23656,1.42247 -0.22375,0.84436 -0.44228,0.90509 -1.30931,0.36372 -0.3814,-0.23815 -0.60185,-0.99449 -0.60185,-2.06489 0,-1.62635 -0.0526,-1.69759 -1.41799,-1.91784 -0.7799,-0.12586 -1.68269,-0.39063 -2.00623,-0.58848 -0.32352,-0.19788 -1.67929,-0.36583 -3.01284,-0.37324 -2.31626,-0.0135 -2.42384,0.0301 -2.40746,0.96032 0.0136,0.78203 0.28266,1.02736 1.36558,1.2459 0.74161,0.14966 1.63441,0.55437 1.98398,0.89936 0.57992,0.57234 0.57661,0.74926 -0.0379,2.02099 -0.75901,1.57081 -1.3143,1.76861 -1.68955,0.60179 -0.14012,-0.43558 -0.46823,-0.80615 -0.72921,-0.82347 -3.91128,-0.25953 -4.6876,-0.25741 -4.6876,0.0135 0,0.17475 0.27083,0.53955 0.60185,0.81067 1.06913,0.87568 0.64697,1.15405 -1.50466,0.99213 -1.15859,-0.0872 -1.70027,-0.0664 -1.20373,0.0463 1.11896,0.25375 1.1757,0.94533 0.1004,1.22287 -1.22476,0.31609 -0.96867,0.75509 0.86212,1.47804 0.92674,0.36595 1.50479,0.80262 1.30405,0.98509 -0.54403,0.49452 -7.15331,0.77949 -7.94447,0.34255 -0.51015,-0.28176 -0.62507,-0.67579 -0.43984,-1.50812 0.24334,-1.09338 0.19362,-1.1342 -1.6808,-1.3799 -1.06235,-0.13935 -2.32795,-0.44411 -2.81247,-0.67742 -0.67433,-0.32472 -1.20611,-0.27192 -2.26749,0.22516 -0.76259,0.35713 -1.6874,0.64933 -2.05512,0.64933 -0.46905,0 -0.59793,0.21968 -0.43185,0.73609 0.34979,1.08763 -0.72703,1.77577 -2.31787,1.48125 -1.04466,-0.19342 -1.50334,-0.072 -2.0728,0.54908 -0.96218,1.04929 -1.49736,1.00651 -2.99799,-0.23965 z m -8.67887,-19.7833 c 0.99433,-10.82918 6.95422,-21.95662 15.35432,-28.66732 3.44912,-2.75544 9.00805,-5.86181 12.78451,-7.14408 2.95145,-1.00216 10.14418,-2.3705 12.46052,-2.3705 1.49441,0 1.78267,0.11853 1.68493,0.69298 -0.0847,0.49804 0.19248,0.72823 0.98551,0.81827 0.60688,0.0688 1.10343,0.29166 1.10343,0.49499 0,0.20332 -1.67018,0.38939 -3.71151,0.41347 l -3.71152,0.0438 2.20685,0.5606 c 1.21378,0.30834 2.97708,0.48841 3.91847,0.40015 1.71338,-0.16064 2.53231,0.22533 1.6369,0.77147 -0.32084,0.19569 -0.19195,0.39442 0.3947,0.60859 1.72718,0.63055 0.86169,1.13569 -2.03794,1.18944 -1.59996,0.0296 -2.50276,0.13111 -2.00622,0.22554 1.51726,0.2884 1.00447,0.9085 -0.75129,0.9085 -1.44053,0 -1.58822,0.0784 -1.14371,0.60694 0.39949,0.47507 1.0015,0.55211 2.77049,0.35461 2.14163,-0.23914 2.33113,-0.18688 3.61515,0.99686 2.37742,2.19175 4.43704,2.74406 4.43704,1.18983 0,-3.29206 4.23266,-5.22761 6.01866,-2.75225 0.47142,0.65338 1.11568,1.18797 1.43168,1.18797 0.97955,0 0.63346,1.12126 -0.63081,2.04375 l -1.20535,0.87948 1.07979,1.11231 c 0.59391,0.61177 1.49743,1.11231 2.00786,1.11231 0.51041,0 0.92802,0.17821 0.92802,0.396 0,0.21779 -0.35044,0.39598 -0.77879,0.39598 -0.42835,0 -0.9027,0.19783 -1.05412,0.43963 -0.16119,0.25741 -0.8363,0.34979 -1.62866,0.22289 -0.74433,-0.11913 -1.35335,-0.0497 -1.35335,0.15435 0,0.78309 -1.61812,0.32343 -2.25888,-0.64169 -1.14976,-1.73177 -5.36406,-3.34028 -4.2779,-1.63278 0.16361,0.25719 0.2498,0.75437 0.19154,1.10483 -0.0761,0.45773 0.43525,0.78087 1.81559,1.14734 2.02597,0.53788 3.14501,1.18538 2.04862,1.18538 -0.34944,0 -0.72977,0.35638 -0.84519,0.79197 -0.17863,0.67416 -0.54729,0.79199 -2.47793,0.79199 -1.40989,0 -2.17426,0.14982 -2.0201,0.39598 0.13633,0.21779 0.85863,0.39599 1.60497,0.39599 0.74635,0 1.46858,0.17819 1.60497,0.39599 0.34838,0.55627 3.5511,0.49491 4.13282,-0.0791 0.3745,-0.36958 0.5885,-0.36958 0.96299,0 0.26482,0.26136 1.12248,0.47793 1.9059,0.48125 2.36162,0.0105 2.82254,0.63733 0.88851,1.20919 -0.91901,0.27174 -1.67093,0.64405 -1.67093,0.82737 0,0.18333 -0.60985,0.33331 -1.35522,0.33331 -0.74538,0 -1.57459,0.26085 -1.84269,0.57967 -0.41981,0.4992 -0.21781,0.55154 1.45553,0.37704 2.09558,-0.21852 3.59356,0.34289 2.60076,0.9747 -0.30029,0.19111 -0.85459,0.26781 -1.23175,0.17047 -0.37719,-0.0973 -0.921,0.10268 -1.20845,0.44452 -0.28746,0.34184 -0.94129,0.62151 -1.45296,0.62151 -1.56474,0 -1.46903,0.69531 0.12799,0.92992 0.82633,0.12138 2.59011,0.38313 3.91949,0.58164 1.3294,0.19852 3.21231,0.76133 4.18427,1.25069 l 1.76721,0.88976 -0.97432,0.73913 c -0.53587,0.40651 -1.20001,0.76089 -1.47587,0.78752 -1.94855,0.18805 -4.49943,0.006 -5.50144,-0.39351 -1.256,-0.50024 -3.025,-0.28373 -3.025,0.37025 0,0.21365 0.6112,0.38846 1.35822,0.38846 0.98683,0 1.52889,0.25707 1.98245,0.94023 0.60053,0.90451 0.57559,0.96401 -0.65603,1.56556 -0.70415,0.34392 -1.95104,0.72959 -2.77087,0.85704 -2.62845,0.40864 -2.13473,0.99303 0.83892,0.99303 3.63815,0 5.01652,0.48817 4.64452,1.64487 -0.26311,0.81816 -0.18936,0.84236 1.84299,0.60481 1.7316,-0.20239 2.20904,-0.12333 2.62214,0.43438 0.32641,0.44068 1.07724,0.69051 2.12272,0.70632 1.50778,0.0227 1.62583,-0.0558 1.73776,-1.15746 0.1377,-1.35446 1.12322,-1.95283 1.12322,-0.68195 0,0.45373 0.18055,0.82497 0.40124,0.82497 0.22068,0 0.40123,-0.45601 0.40123,-1.01334 0,-0.57473 0.1737,-0.9074 0.40127,-0.76861 0.22068,0.13456 0.40123,0.57155 0.40123,0.97097 0,0.87723 0.76457,1.20697 2.79861,1.20697 1.05422,0 1.60855,-0.20404 1.78463,-0.65686 0.22122,-0.56895 0.40442,-0.51597 1.36892,0.39599 0.61244,0.57907 1.23211,1.05284 1.37703,1.05284 0.14498,0 0.45843,-0.71433 0.69663,-1.58742 0.39851,-1.46052 0.52005,-1.56725 1.52014,-1.33485 1.31858,0.30642 1.57033,0.52266 1.75024,1.50351 0.30477,1.6614 1.05181,1.00766 1.32631,-1.16064 0.17076,-1.34876 0.45517,-2.1602 0.72593,-2.07114 0.51087,0.16806 1.45536,3.82941 1.48059,5.73952 l 0.017,1.28695 h -41.98533 -41.98533 z m 30.31326,-3.16089 c 3.2253,-1.48166 5.42835,-3.44247 6.6607,-5.9283 0.96482,-1.94619 1.06153,-2.51186 0.89629,-5.24244 -0.3882,-6.41486 -3.70694,-9.47947 -9.89198,-9.13455 -9.88583,0.55127 -16.33807,11.30486 -10.77756,17.96235 2.79775,3.34973 8.64619,4.39471 13.11255,2.34294 z"
       id="path21"
       inkscape:connector-curvature="0" />
  </g>
</svg>
