<?xml version="1.0" encoding="UTF-8" standalone="no"?>
<!-- Created with Inkscape (http://www.inkscape.org/) -->

<svg
   xmlns:dc="http://purl.org/dc/elements/1.1/"
   xmlns:cc="http://creativecommons.org/ns#"
   xmlns:rdf="http://www.w3.org/1999/02/22-rdf-syntax-ns#"
   xmlns:svg="http://www.w3.org/2000/svg"
   xmlns="http://www.w3.org/2000/svg"
   xmlns:sodipodi="http://sodipodi.sourceforge.net/DTD/sodipodi-0.dtd"
   xmlns:inkscape="http://www.inkscape.org/namespaces/inkscape"
   width="900"
   height="900"
   viewBox="0 0 238.12499 238.125"
   version="1.1"
   id="svg8"
   inkscape:version="0.92.4 (5da689c313, 2019-01-14)"
   sodipodi:docname="speciesVectorNEW.svg">
  <defs
     id="defs2" />
  <sodipodi:namedview
     id="base"
     pagecolor="#ffffff"
     bordercolor="#666666"
     borderopacity="1.0"
     inkscape:pageopacity="0.0"
     inkscape:pageshadow="2"
     inkscape:zoom="0.35"
     inkscape:cx="-74.285692"
     inkscape:cy="857.14286"
     inkscape:document-units="mm"
     inkscape:current-layer="layer1"
     showgrid="false"
     fit-margin-top="0"
     fit-margin-left="0"
     fit-margin-right="0"
     fit-margin-bottom="0"
     inkscape:pagecheckerboard="true"
     units="px"
     inkscape:window-width="1842"
     inkscape:window-height="1051"
     inkscape:window-x="-9"
     inkscape:window-y="-9"
     inkscape:window-maximized="1" />
  <metadata
     id="metadata5">
    <rdf:RDF>
      <cc:Work
         rdf:about="">
        <dc:format>image/svg+xml</dc:format>
        <dc:type
           rdf:resource="http://purl.org/dc/dcmitype/StillImage" />
        <dc:title></dc:title>
      </cc:Work>
    </rdf:RDF>
  </metadata>
  <g
     inkscape:label="Layer 1"
     inkscape:groupmode="layer"
     id="layer1"
     transform="translate(-21.922613,-137.49406)">
    <path
       style="fill:#000000;stroke-width:0.35277778"
       d="m 183.38611,362.79153 c -0.29104,-0.10936 -0.92604,-0.47171 -1.41111,-0.80522 -0.48507,-0.33351 -1.51695,-0.7203 -2.29306,-0.85952 -0.77611,-0.13923 -2.11685,-0.56291 -2.97942,-0.94151 -1.36574,-0.59945 -1.8109,-0.638 -3.44645,-0.29846 -1.03298,0.21445 -2.40297,0.34469 -3.04442,0.28942 -0.78381,-0.0675 -1.49129,0.15518 -2.15737,0.67912 -1.40015,1.10136 -2.19268,0.97699 -3.75968,-0.59001 -1.59802,-1.59803 -1.79918,-3.10813 -0.70081,-5.2611 0.36783,-0.72102 0.72502,-1.70688 0.79375,-2.19081 0.11053,-0.7783 0.003,-0.87436 -0.93338,-0.83214 -0.58208,0.0262 -3.36021,0.16116 -6.17361,0.29979 -3.03867,0.14974 -5.70979,0.11297 -6.57973,-0.0906 -1.31498,-0.30768 -1.54956,-0.25757 -2.29815,0.49103 -1.13486,1.13486 -1.83075,1.12855 -8.23656,-0.0747 -0.8366,-0.15715 -1.35418,0.0317 -2.42976,0.88644 -1.22291,0.97185 -1.61841,1.08612 -3.75905,1.08612 -1.59456,0 -2.73638,-0.19744 -3.42401,-0.59209 -0.98196,-0.56357 -1.08956,-0.55725 -2.23345,0.13107 -1.81811,1.09403 -2.80903,1.23837 -9.31568,1.35691 -5.47475,0.0998 -6.13203,0.0453 -7.54468,-0.62448 -1.23273,-0.58451 -1.67986,-0.65107 -2.19841,-0.32723 -0.55513,0.34668 -0.68234,0.28135 -0.86435,-0.44382 -0.27196,-1.08355 -1.31434,-1.34555 -4.18369,-1.05158 -2.95471,0.30272 -5.164548,-0.0562 -6.680611,-1.08502 -0.6774,-0.45969 -1.600249,-0.89079 -2.050778,-0.95798 -0.797966,-0.11902 -0.786769,-0.1553 0.433186,-1.40367 0.769391,-0.7873 1.857731,-1.44493 2.822225,-1.70532 0.86344,-0.2331 2.921808,-1.04274 4.574148,-1.7992 1.65235,-0.75645 3.23985,-1.38919 3.52778,-1.40609 1.31571,-0.0772 -5.77872,-1.77375 -8.251348,-1.97319 l -2.777633,-0.22405 0.19631,-1.79644 c 0.107968,-0.98803 1.233428,-9.65455 2.501023,-19.25893 1.26758,-9.60437 3.022688,-23.1775 3.900228,-30.1625 0.87754,-6.985 1.67858,-13.29531 1.78009,-14.02291 0.18149,-1.30083 0.16496,-1.32292 -0.99029,-1.32292 -0.64618,0 -2.03711,-0.25327 -3.09097,-0.56282 -6.238404,-1.83238 -11.971918,-7.58996 -14.830381,-14.8926 -0.621965,-1.58896 -1.253335,-2.88902 -1.403043,-2.88902 -0.572001,0 -0.770799,4.35739 -0.563245,12.34564 0.170769,6.57239 0.437254,9.79153 1.285084,15.5238 0.588303,3.97757 1.070141,7.70053 1.070752,8.27324 7.05e-4,0.57271 -0.343864,2.44793 -0.7655,4.16715 -0.703132,2.86706 -0.725526,3.27739 -0.270461,4.95593 0.684781,2.52586 0.543977,7.99336 -0.337851,13.11896 -0.783583,4.55455 -1.883365,14.74867 -2.511898,23.28333 -0.416334,5.65327 -0.187805,11.51867 0.532105,13.6571 0.495734,1.47252 0.4018,1.68873 -0.733668,1.68873 -1.235488,0 -1.526939,-1.18855 -2.638432,-10.75972 -0.726158,-6.253 -0.72794,-6.45222 -0.116565,-13.04208 0.536106,-5.77856 0.562236,-7.3411 0.191438,-11.44649 -0.336821,-3.72917 -0.337354,-6.47009 -0.0025,-12.7107 0.427027,-7.95783 0.239165,-12.2704 -0.723096,-16.59934 -0.448074,-2.01577 -0.473329,-11.36381 -0.03574,-13.22917 0.182065,-0.77611 0.576887,-3.63361 0.877379,-6.35 0.300493,-2.71638 0.631187,-5.45482 0.734875,-6.08541 0.177257,-1.07801 0.126044,-1.14653 -0.856943,-1.14653 -1.64018,0 -2.075953,0.2885 -1.89169,1.2524 0.243731,1.275 -0.298598,1.03846 -1.609146,-0.70185 -2.649111,-3.51783 -3.345336,-6.69326 -1.980064,-9.03093 0.89657,-1.53514 6.767078,-6.46906 9.81069,-8.24548 3.053542,-1.78222 3.2627,-2.1902 2.286377,-4.45972 -0.763005,-1.77365 -0.763718,-1.79564 -0.08781,-2.70094 1.064465,-1.42574 2.870659,-2.2186 5.062968,-2.22248 2.628615,-0.005 5.067876,-1.18576 7.087087,-3.43161 1.4293,-1.58973 1.88166,-2.50082 2.634208,-5.30559 0.34834,-1.29826 1.74334,-1.97215 3.96169,-1.91378 2.27469,0.0598 2.71407,-0.20648 3.27567,-1.9856 0.22479,-0.71209 1.33864,-3.3638 2.47525,-5.8927 2.59459,-5.77288 3.29264,-8.34743 2.83172,-10.44389 -0.75959,-3.45492 1.46572,-8.06505 3.893,-8.06505 0.92338,0 0.81835,-0.51933 -0.24608,-1.21678 -1.10458,-0.72374 -2.8586,-3.42362 -3.4017,-5.23605 -0.29944,-0.9993 -0.54169,-1.28214 -0.95793,-1.11844 -2.73246,1.07463 -6.89176,0.82633 -12.02242,-0.7177 -5.031858,-1.51431 -9.817536,-2.35807 -13.493745,-2.37909 -3.99669,-0.0229 -4.205033,-0.26001 -1.940278,-2.20868 2.059302,-1.77188 6.545531,-3.87219 10.142362,-4.74833 6.706331,-1.63358 8.533991,-2.37731 11.994441,-4.88095 l 1.94028,-1.4038 0.0225,-3.30273 c 0.0124,-1.8165 0.23188,-3.93773 0.48772,-4.71384 0.25584,-0.77611 1.88478,-3.99288 3.61987,-7.14837 3.29122,-5.98552 3.49233,-6.20855 6.5815,-7.29861 0.70555,-0.24897 2.92112,-1.20367 4.92351,-2.12157 4.04511,-1.85428 3.59309,-1.8272 10.05018,-0.60204 6.77214,1.28494 9.85236,2.60886 12.95494,5.56822 1.13301,1.08071 2.40878,2.75403 2.96357,3.88706 l 0.97414,1.98945 2.48404,-0.23087 c 4.83511,-0.44937 7.74504,-1.25836 12.26541,-3.40988 5.40725,-2.57365 7.85637,-3.17423 9.94108,-2.43778 1.42056,0.50183 3.11919,2.21206 2.65656,2.6747 -0.12676,0.12675 -0.81629,0.27694 -1.5323,0.33376 -1.79666,0.14255 -2.84994,1.33498 -5.21882,5.90823 -2.48697,4.80123 -5.15069,8.76709 -6.63849,9.8837 -1.79749,1.34901 -4.64856,2.66546 -6.32366,2.91986 -2.15169,0.32679 -2.76192,0.97176 -2.76931,2.92701 -0.004,0.89156 -0.24149,2.73221 -0.52916,4.09033 -0.59661,2.81661 -0.67556,4.76263 -0.19323,4.76263 0.70821,0 2.35373,-0.78788 3.09427,-1.48154 0.70938,-0.66448 1.09958,-0.71456 4.40972,-0.56594 2.41199,0.10829 4.10533,0.37391 5.04258,0.791 7.91544,3.52245 10.34211,5.15539 12.55632,8.44932 0.70126,1.04322 1.37569,2.52635 1.49874,3.29584 l 0.22372,1.39908 2.68402,0.51967 2.68401,0.51967 1.40062,-1.01461 c 0.98085,-0.71052 1.69694,-1.67504 2.38932,-3.21822 1.03323,-2.30288 2.76546,-4.10816 3.94193,-4.10816 1.01288,0 2.96664,0.88838 3.81124,1.73297 1.03795,1.03796 0.99196,3.19846 -0.0958,4.50177 -1.93143,2.31407 -2.53737,4.80907 -1.43555,5.9109 0.80698,0.80698 2.09186,0.68084 3.66423,-0.3597 3.13134,-2.07223 5.83888,-1.80608 7.0486,0.69286 1.45635,3.00843 0.73279,4.55462 -2.6444,5.65086 -0.98128,0.31853 -2.31582,1.023 -2.96564,1.56549 l -1.18149,0.98636 -0.0513,6.68077 c -0.0437,5.69451 -0.17063,7.14864 -0.85951,9.84995 -0.85424,3.34968 -0.81589,5.12395 0.13343,6.17293 0.30439,0.33635 0.96827,2.18197 1.4753,4.10139 0.74433,2.81773 0.9294,4.3527 0.96095,7.97009 0.0267,3.06762 0.17812,4.6193 0.48006,4.92125 1.04028,1.04035 0.009,5.08528 -1.84981,7.25718 -0.69822,0.8157 -1.81264,1.64464 -2.52883,1.881 -3.74853,1.23713 -11.0011,-1.61412 -15.28004,-6.00716 -1.93337,-1.98491 -4.31856,-6.40935 -4.9495,-9.18113 -0.81332,-3.57299 -1.06462,-3.11393 -0.86904,1.5875 0.94612,22.74336 2.17964,33.95561 4.5512,41.36856 4.54396,14.2034 7.31147,26.94318 7.9654,36.66748 0.38581,5.73708 1.24958,8.44295 4.00008,12.53077 1.08035,1.60562 3.32232,4.40845 4.98216,6.22853 1.65985,1.82007 3.11903,3.71216 3.24264,4.20465 0.30995,1.23495 -1.00144,2.29871 -2.60327,2.1117 -1.13019,-0.13194 -1.51987,0.16386 -0.80109,0.60809 0.69163,0.42746 1.75885,2.98076 1.75885,4.20803 0,2.14019 -0.6936,2.33295 -7.02832,1.95327 l -5.44082,-0.32609 -1.68782,1.57876 c -1.6179,1.51335 -2.51079,1.82168 -3.83471,1.32421 z"
       id="path21"
       inkscape:connector-curvature="0" />
  </g>
</svg>
